<svg xmlns="http://www.w3.org/2000/svg" viewBox="0 0 210 297" height="1122.52" width="793.701"><path fill="#fff" d="M97.961 151.742a.514.514 0 01.669-.293.514.514 0 01.293.667l-5.958 15.264a.514.514 0 11-.958-.378zM72.472 153.4l-1.034 2.648 8.253 3.226 1.034-2.65zm16.793 12.555a.52.52 0 00.479.707c.207 0 .4-.126.48-.328l5.956-15.264a.522.522 0 00-.292-.672.517.517 0 00-.667.293zm-11.188-2.547l1.034-2.649-8.253-3.224-1.034 2.648zm-8.833-1.738l-1.034 2.648 8.255 3.225 1.032-2.649zm5.605 10.008l1.034-2.649-8.253-3.224-1.034 2.648zm-3.39-30.86a3.092 3.092 0 014.004-1.758l9.045 3.53a3.093 3.093 0 011.757 4.006l-2.229 5.705a3.096 3.096 0 01-4.004 1.759l-9.045-3.531a3.092 3.092 0 01-1.757-4.005zm.277 7.79l9.045 3.53a1.029 1.029 0 001.335-.585l2.227-5.708a1.03 1.03 0 00-.587-1.335l-9.043-3.53a1.032 1.032 0 00-1.335.586l-2.229 5.707a1.032 1.032 0 00.587 1.336zm33.796-63.792c-1.395 2.68-2.689 5.552-3.886 8.57l19.256 7.515a138.743 138.743 0 003.118-8.87zm-3.754 2.735c.54-1.186 1.09-2.35 1.66-3.48l-5.905-2.306a49.883 49.883 0 00-1.746 3.446zm-7.58 1.431l-.51 1.3 5.93 2.315c.447-1.12.91-2.215 1.38-3.296l-5.986-2.337a91.449 91.449 0 00-.815 2.018zm14.51 93.33l-.77-2.648-.556 1.428c-.196.51-.7.851-1.257.851a1.33 1.33 0 01-.478-.092l-6.491-2.534a1.341 1.341 0 01-.763-1.735l6.81-17.446-.805-2.761-7.638 19.566a3.109 3.109 0 001.757 4.01l6.49 2.53a3.091 3.091 0 003.7-1.169zm-.264-3.956a.74.74 0 01.166-.064l1.729-.505-.714-2.451zm-15.87-28.72L86.619 164.9a.515.515 0 00.96.376l5.958-15.262a.517.517 0 00-.961-.378zm-.482-3.434l.058.199c.089.305.311.55.606.668l9.379 3.763a3.074 3.074 0 01-.063 2.056l-8.87 22.724a3.103 3.103 0 01-4.005 1.757l-6.49-2.533a3.103 3.103 0 01-1.758-4.006l8.87-22.725a3.09 3.09 0 012.273-1.903zm-8.749 27l6.491 2.532c.155.056.317.09.479.09a1.35 1.35 0 001.255-.85l8.871-22.727a1.33 1.33 0 00-.024-1.023 1.322 1.322 0 00-.739-.709l-6.49-2.535a1.294 1.294 0 00-.48-.092c-.553 0-1.056.343-1.256.855l-8.87 22.722c-.267.69.074 1.468.763 1.736zm-36.548 53.406l18.3-23.76c.195-.254.498-.4.817-.4h3.38l2.238-7.692c.013-.04.033-.082.05-.12a14.159 14.159 0 01-3.022-6.338L64.6 186.75a3.04 3.04 0 01-1.213-.853l-11.841-13.674A3.098 3.098 0 0151 169.07l27.727-71.03c.151-.394.378-.737.653-1.021a1.04 1.04 0 01-.077-.878l4.393-11.254c.111-.289.23-.574.348-.858l-1.44-.564-.327.83-3.195-1.252 1.957-4.986 3.195 1.253-.327.831 1.704.669c.498-.9 1.033-1.775 1.604-2.614-.027-.015-.054-.026-.08-.043a1.03 1.03 0 01-.229-1.44c2.8-3.848 6.331-7.043 10.496-9.49a1.032 1.032 0 011.412.365.84.84 0 01.04.09c8.359-4.546 18.593-5.514 28.15-1.782l3.485 1.36a33.313 33.313 0 0113.434 9.615l1.825-1.26-.507-.737 2.826-1.948 3.04 4.41-2.826 1.948-.507-.734-1.704 1.175c5.009 7.448 6.954 16.803 4.906 25.944l1.793 1.056.455-.77 2.956 1.742-2.72 4.615-2.954-1.74.454-.77-.987-.582c-.155.45-.317.899-.49 1.344l-4.388 11.255a1.06 1.06 0 01-.145.242 3.069 3.069 0 01-.143 1.769l-15.695 40.204-3.261-11.196.86.334 11.209-28.712-4.607-1.799a3.09 3.09 0 01-3.698 1.176l-3.564-1.392-.785-2.695a19.598 19.598 0 00-5.768-9.121l23.55 9.193c.18.071.35.158.51.256l.612-1.566-61.95-24.18-.622 1.594.446.174c.23.033.461.09.687.177l23.902 9.329c-.066 0-.134-.005-.202-.005-1.851 0-3.7.264-5.49.787a19.53 19.53 0 00-6.847 3.581l-4.076-1.591a3.095 3.095 0 01-1.93-3.371l-4.721-1.844-2.07 5.307 2.88 1.125c1.417.553 2.212 1.542 2.514 2.64l3.422 1.336a3.64 3.64 0 01.843-.388 19.829 19.829 0 00-2.88 5.127l-3.26-1.27c-.967.604-2.22.792-3.64.238l-2.88-1.125-1.632 4.182 10.166 3.968a19.538 19.538 0 00.755 6.42l.859 2.945a5.018 5.018 0 01-1.022-.278l-13.756-5.37-1.506 3.857 17.783 6.941.618 2.123-19.04-7.433-13.734 35.184 52.972 20.68.636 2.183-1.198.347a1.03 1.03 0 00-.698 1.278l1.183 4.064-14.11 1.598a3.101 3.101 0 01-1.472-.19l-4.193-1.633a14.13 14.13 0 01-5.068 2.352l-.893 3.071h3.285c.335 0 .648.162.841.436l12.005 16.942-1.139 1.959L87.7 204.5H66.418l-16.16 20.985h10.69v-1.21c0-8.553 6.957-15.508 15.509-15.508s15.51 6.955 15.51 15.508v1.21h5.818l-.11.191a3.093 3.093 0 00-.003 3.103l1.833 3.16H49.746a1.03 1.03 0 01-.893-.516l-2.133-3.678a1.018 1.018 0 01.075-1.136zm99.627-113.853l.627-1.614-24.173-9.465c1.177-3.015 2.211-5.972 3.063-8.818l23.567 9.198c.905-7.65-1.078-15.268-5.326-21.445l-17.162-6.7 1.968-5.033-1.832-.714-1.966 5.032-17.297-6.75c-9.792 2.235-18.346 9.125-22.272 19.19l-1.147 2.939zM96.64 192.618l13.645-1.547-51.713-20.185 8.99 10.379zm-7.718 3.627l-18.361-7.164c1.53 5.162 6.31 8.94 11.962 8.94a12.44 12.44 0 006.399-1.776zm-6.12 6.202l.792-2.721c-.353.03-.71.045-1.07.045a14.174 14.174 0 01-9.294-3.468l-1.788 6.144zm-12.416 23.046h12.005v-6.529H70.386zm0-8.284h12.005v-.618H70.386zm-7.685 8.284h5.932v-9.776c0-.482.394-.877.876-.877h13.758c.484 0 .876.395.876.877v9.776h6.072v-1.213c0-7.58-6.17-13.753-13.756-13.753S62.703 216.7 62.703 224.28zm55.918-88.712l-3.264-11.21a.881.881 0 01.599-1.087l3.7-1.078a.872.872 0 01.666.073c.204.111.354.3.422.524l3.264 11.209a.879.879 0 01-.599 1.086l-3.701 1.078a.885.885 0 01-.669-.073.888.888 0 01-.418-.522zm1.438-1.332l2.017-.587-2.776-9.527-2.016.587zm-3.226 46.512l11.21-3.264a.877.877 0 011.087.597l1.076 3.7a.894.894 0 01-.071.667.883.883 0 01-.524.421l-11.21 3.265a.874.874 0 01-1.086-.595l-1.079-3.7a.881.881 0 01.077-.668.858.858 0 01.52-.423zm1.92 3.455l9.53-2.774-.589-2.018-9.529 2.776zm-19.294 41.307l13.82-23.76c.183-.321.525-.514.894-.514h2.554l-.555-1.902-.561.167-.636.182a1.029 1.029 0 01-1.274-.702l-1.633-5.601a1.026 1.026 0 01.7-1.276l.592-.176.606-.178-3.493-11.99a1.034 1.034 0 01.705-1.278l1.73-.504-8.661-29.737-9.781-3.924a1.03 1.03 0 01-.606-.669l-4.283-14.709c-2.708-9.299 2.653-19.068 11.95-21.779 9.3-2.703 19.067 2.66 21.773 11.958l4.284 14.71c.09.305.037.632-.153.89l-6.142 8.56 8.661 29.738 1.722-.501a1.028 1.028 0 011.275.702l3.492 11.99 1.142-.332a1.03 1.03 0 01.782.089c.246.128.418.35.495.616l1.633 5.603c.078.263.042.543-.089.783-.129.24-.35.416-.616.491l-.777.23-.364.108 2.46 8.45h2.877c.367 0 .707.19.893.511l13.82 23.759c.182.324.182.714 0 1.034l-2.136 3.682c-.183.32-.524.514-.893.514h-53.181c-.366 0-.707-.193-.891-.514l-2.133-3.682a1.032 1.032 0 01-.002-1.04zm19.699-82.137a1.02 1.02 0 01.153-.89l6.144-8.56-4.146-14.229c-2.388-8.207-11.01-12.943-19.217-10.554-8.206 2.394-12.938 11.017-10.55 19.223l4.144 14.228 9.781 3.923c.293.118.518.365.606.668l8.803 30.22 1.585-.461-12.675-43.53.854-1.74a7.847 7.847 0 01-.414-15.18 7.847 7.847 0 019.73 5.341 7.837 7.837 0 01-1.813 7.557l1.765 1.074 12.673 43.528 1.369-.398zm-3.134 9.186l-.963-3.301-.495.144-1.185-4.065.496-.145-.963-3.299-2.968.865.959 3.3.496-.145 1.186 4.066-.495.142.963 3.301.493-.142 6.576 22.593 1.983-.576-6.58-22.595zm-7.336-29.19a2.36 2.36 0 10-4.53 1.322 2.36 2.36 0 004.53-1.321zm22.566 51.411l-1.727.505c-.038.01-.082.016-.12.023-.036.015-.071.036-.11.045l-15.197 4.426-1.358.397 3.203 10.998 18.522-5.396zm5.913 12.36l-.054.017-1.086.319h-.002l-21.697 6.318 1.055 3.623 21.695-6.318 1.142-.33zm-.5 6.224l-18.523 5.394.728 2.476h20.087zm-13.543 30.916h12.006v-6.529h-12.006zm0-8.284h12.006v-.618h-12.006zm-7.685 8.284h5.931v-9.776c0-.482.394-.877.876-.877H136a.88.88 0 01.877.877v9.776h6.073v-1.213c0-7.58-6.176-13.753-13.758-13.753-7.582 0-13.754 6.172-13.754 13.753zm-1.75 0l-.002-1.213c0-8.549 6.957-15.504 15.51-15.504 8.552 0 15.509 6.955 15.509 15.504v1.213h10.889l-12.205-20.985h-28.629l-12.203 20.985z"/></svg>