<svg xmlns="http://www.w3.org/2000/svg" viewBox="0 0 297 210" height="793.701" width="1122.52"><g fill="#fff"><g transform="translate(-110.75 2.444)"><rect rx="0" ry=".626" y="10.833" x="257.911" height="3.463" width="1.251" transform="rotate(1.067)"/><rect transform="rotate(1.067)" width="1.251" height="3.463" x="259.816" y="10.797" ry=".626" rx="0"/></g><g transform="rotate(3.408 162.766 -1757.698)"><rect rx="0" ry=".626" y="10.833" x="257.911" height="3.463" width="1.251" transform="rotate(1.067)"/><rect transform="rotate(1.067)" width="1.251" height="3.463" x="259.816" y="10.797" ry=".626" rx="0"/></g><g transform="rotate(6.786 183.227 -830.384)"><rect rx="0" ry=".626" y="10.833" x="257.911" height="3.463" width="1.251" transform="rotate(1.067)"/><rect transform="rotate(1.067)" width="1.251" height="3.463" x="259.816" y="10.797" ry=".626" rx="0"/></g><g transform="rotate(10.228 190.183 -515.161)"><rect rx="0" ry=".626" y="10.833" x="257.911" height="3.463" width="1.251" transform="rotate(1.067)"/><rect transform="rotate(1.067)" width="1.251" height="3.463" x="259.816" y="10.797" ry=".626" rx="0"/></g><g transform="rotate(13.351 193.396 -369.508)"><rect rx="0" ry=".626" y="10.833" x="257.911" height="3.463" width="1.251" transform="rotate(1.067)"/><rect transform="rotate(1.067)" width="1.251" height="3.463" x="259.816" y="10.797" ry=".626" rx="0"/></g><g transform="rotate(16.705 195.514 -273.542)"><rect rx="0" ry=".626" y="10.833" x="257.911" height="3.463" width="1.251" transform="rotate(1.067)"/><rect transform="rotate(1.067)" width="1.251" height="3.463" x="259.816" y="10.797" ry=".626" rx="0"/></g><g transform="rotate(19.826 196.844 -213.243)"><rect rx="0" ry=".626" y="10.833" x="257.911" height="3.463" width="1.251" transform="rotate(1.067)"/><rect transform="rotate(1.067)" width="1.251" height="3.463" x="259.816" y="10.797" ry=".626" rx="0"/></g><g transform="rotate(22.943 197.815 -169.246)"><rect rx="0" ry=".626" y="10.833" x="257.911" height="3.463" width="1.251" transform="rotate(1.067)"/><rect transform="rotate(1.067)" width="1.251" height="3.463" x="259.816" y="10.797" ry=".626" rx="0"/></g><g transform="rotate(26.131 198.57 -134.992)"><rect rx="0" ry=".626" y="10.833" x="257.911" height="3.463" width="1.251" transform="rotate(1.067)"/><rect transform="rotate(1.067)" width="1.251" height="3.463" x="259.816" y="10.797" ry=".626" rx="0"/></g><g transform="rotate(29.463 199.189 -106.988)"><rect rx="0" ry=".626" y="10.833" x="257.911" height="3.463" width="1.251" transform="rotate(1.067)"/><rect transform="rotate(1.067)" width="1.251" height="3.463" x="259.816" y="10.797" ry=".626" rx="0"/></g><g transform="rotate(32.701 199.671 -85.133)"><rect rx="0" ry=".626" y="10.833" x="257.911" height="3.463" width="1.251" transform="rotate(1.067)"/><rect transform="rotate(1.067)" width="1.251" height="3.463" x="259.816" y="10.797" ry=".626" rx="0"/></g><g transform="rotate(35.85 200.059 -67.571)"><rect rx="0" ry=".626" y="10.833" x="257.911" height="3.463" width="1.251" transform="rotate(1.067)"/><rect transform="rotate(1.067)" width="1.251" height="3.463" x="259.816" y="10.797" ry=".626" rx="0"/></g><g transform="rotate(39.089 200.394 -52.371)"><rect rx="0" ry=".626" y="10.833" x="257.911" height="3.463" width="1.251" transform="rotate(1.067)"/><rect transform="rotate(1.067)" width="1.251" height="3.463" x="259.816" y="10.797" ry=".626" rx="0"/></g><g transform="rotate(42.141 200.664 -40.11)"><rect rx="0" ry=".626" y="10.833" x="257.911" height="3.463" width="1.251" transform="rotate(1.067)"/><rect transform="rotate(1.067)" width="1.251" height="3.463" x="259.816" y="10.797" ry=".626" rx="0"/></g><g transform="rotate(45.201 200.9 -29.407)"><rect rx="0" ry=".626" y="10.833" x="257.911" height="3.463" width="1.251" transform="rotate(1.067)"/><rect transform="rotate(1.067)" width="1.251" height="3.463" x="259.816" y="10.797" ry=".626" rx="0"/></g><g transform="rotate(48.174 201.103 -20.25)"><rect rx="0" ry=".626" y="10.833" x="257.911" height="3.463" width="1.251" transform="rotate(1.067)"/><rect transform="rotate(1.067)" width="1.251" height="3.463" x="259.816" y="10.797" ry=".626" rx="0"/></g><g transform="rotate(51.016 201.275 -12.436)"><rect rx="0" ry=".626" y="10.833" x="257.911" height="3.463" width="1.251" transform="rotate(1.067)"/><rect transform="rotate(1.067)" width="1.251" height="3.463" x="259.816" y="10.797" ry=".626" rx="0"/></g><g transform="rotate(54.078 201.442 -4.878)"><rect rx="0" ry=".626" y="10.833" x="257.911" height="3.463" width="1.251" transform="rotate(1.067)"/><rect transform="rotate(1.067)" width="1.251" height="3.463" x="259.816" y="10.797" ry=".626" rx="0"/></g><g transform="rotate(57.289 201.599 2.24)"><rect rx="0" ry=".626" y="10.833" x="257.911" height="3.463" width="1.251" transform="rotate(1.067)"/><rect transform="rotate(1.067)" width="1.251" height="3.463" x="259.816" y="10.797" ry=".626" rx="0"/></g><g transform="rotate(60.295 201.732 8.273)"><rect rx="0" ry=".626" y="10.833" x="257.911" height="3.463" width="1.251" transform="rotate(1.067)"/><rect transform="rotate(1.067)" width="1.251" height="3.463" x="259.816" y="10.797" ry=".626" rx="0"/></g><g transform="rotate(63.323 201.854 13.823)"><rect rx="0" ry=".626" y="10.833" x="257.911" height="3.463" width="1.251" transform="rotate(1.067)"/><rect transform="rotate(1.067)" width="1.251" height="3.463" x="259.816" y="10.797" ry=".626" rx="0"/></g><g transform="rotate(66.525 201.973 19.198)"><rect rx="0" ry=".626" y="10.833" x="257.911" height="3.463" width="1.251" transform="rotate(1.067)"/><rect transform="rotate(1.067)" width="1.251" height="3.463" x="259.816" y="10.797" ry=".626" rx="0"/></g><g transform="rotate(69.516 202.075 23.82)"><rect rx="0" ry=".626" y="10.833" x="257.911" height="3.463" width="1.251" transform="rotate(1.067)"/><rect transform="rotate(1.067)" width="1.251" height="3.463" x="259.816" y="10.797" ry=".626" rx="0"/></g><g transform="rotate(72.887 202.181 28.63)"><rect rx="0" ry=".626" y="10.833" x="257.911" height="3.463" width="1.251" transform="rotate(1.067)"/><rect transform="rotate(1.067)" width="1.251" height="3.463" x="259.816" y="10.797" ry=".626" rx="0"/></g><g transform="rotate(76.057 202.274 32.815)"><rect rx="0" ry=".626" y="10.833" x="257.911" height="3.463" width="1.251" transform="rotate(1.067)"/><rect transform="rotate(1.067)" width="1.251" height="3.463" x="259.816" y="10.797" ry=".626" rx="0"/></g><g transform="rotate(79.15 202.358 36.623)"><rect rx="0" ry=".626" y="10.833" x="257.911" height="3.463" width="1.251" transform="rotate(1.067)"/><rect transform="rotate(1.067)" width="1.251" height="3.463" x="259.816" y="10.797" ry=".626" rx="0"/></g><g transform="rotate(82.461 202.442 40.432)"><rect rx="0" ry=".626" y="10.833" x="257.911" height="3.463" width="1.251" transform="rotate(1.067)"/><rect transform="rotate(1.067)" width="1.251" height="3.463" x="259.816" y="10.797" ry=".626" rx="0"/></g><g transform="rotate(85.413 202.512 43.623)"><rect rx="0" ry=".626" y="10.833" x="257.911" height="3.463" width="1.251" transform="rotate(1.067)"/><rect transform="rotate(1.067)" width="1.251" height="3.463" x="259.816" y="10.797" ry=".626" rx="0"/></g><g transform="rotate(88.177 202.574 46.453)"><rect rx="0" ry=".626" y="10.833" x="257.911" height="3.463" width="1.251" transform="rotate(1.067)"/><rect transform="rotate(1.067)" width="1.251" height="3.463" x="259.816" y="10.797" ry=".626" rx="0"/></g><g transform="rotate(88.284 202.577 46.56)"><rect transform="rotate(1.067)" width="1.251" height="3.463" x="257.911" y="10.833" ry=".626" rx="0"/><rect rx="0" ry=".626" y="10.797" x="259.816" height="3.463" width="1.251" transform="rotate(1.067)"/></g><g transform="scale(-1 1) rotate(3.408 18.231 -6751.844)"><rect transform="rotate(1.067)" width="1.251" height="3.463" x="257.911" y="10.833" ry=".626" rx="0"/><rect rx="0" ry=".626" y="10.797" x="259.816" height="3.463" width="1.251" transform="rotate(1.067)"/></g><g transform="scale(-1 1) rotate(6.786 36.68 -3336.49)"><rect transform="rotate(1.067)" width="1.251" height="3.463" x="257.911" y="10.833" ry=".626" rx="0"/><rect rx="0" ry=".626" y="10.797" x="259.816" height="3.463" width="1.251" transform="rotate(1.067)"/></g><g transform="scale(-1 1) rotate(10.228 42.951 -2175.504)"><rect transform="rotate(1.067)" width="1.251" height="3.463" x="257.911" y="10.833" ry=".626" rx="0"/><rect rx="0" ry=".626" y="10.797" x="259.816" height="3.463" width="1.251" transform="rotate(1.067)"/></g><g transform="scale(-1 1) rotate(13.351 45.85 -1639.054)"><rect transform="rotate(1.067)" width="1.251" height="3.463" x="257.911" y="10.833" ry=".626" rx="0"/><rect rx="0" ry=".626" y="10.797" x="259.816" height="3.463" width="1.251" transform="rotate(1.067)"/></g><g transform="scale(-1 1) rotate(16.705 47.758 -1285.606)"><rect transform="rotate(1.067)" width="1.251" height="3.463" x="257.911" y="10.833" ry=".626" rx="0"/><rect rx="0" ry=".626" y="10.797" x="259.816" height="3.463" width="1.251" transform="rotate(1.067)"/></g><g transform="scale(-1 1) rotate(19.826 48.958 -1063.523)"><rect transform="rotate(1.067)" width="1.251" height="3.463" x="257.911" y="10.833" ry=".626" rx="0"/><rect rx="0" ry=".626" y="10.797" x="259.816" height="3.463" width="1.251" transform="rotate(1.067)"/></g><g transform="scale(-1 1) rotate(22.943 49.833 -901.477)"><rect transform="rotate(1.067)" width="1.251" height="3.463" x="257.911" y="10.833" ry=".626" rx="0"/><rect rx="0" ry=".626" y="10.797" x="259.816" height="3.463" width="1.251" transform="rotate(1.067)"/></g><g transform="scale(-1 1) rotate(26.131 50.515 -775.317)"><rect transform="rotate(1.067)" width="1.251" height="3.463" x="257.911" y="10.833" ry=".626" rx="0"/><rect rx="0" ry=".626" y="10.797" x="259.816" height="3.463" width="1.251" transform="rotate(1.067)"/></g><g transform="scale(-1 1) rotate(29.463 51.072 -672.179)"><rect transform="rotate(1.067)" width="1.251" height="3.463" x="257.911" y="10.833" ry=".626" rx="0"/><rect rx="0" ry=".626" y="10.797" x="259.816" height="3.463" width="1.251" transform="rotate(1.067)"/></g><g transform="scale(-1 1) rotate(32.701 51.507 -591.684)"><rect transform="rotate(1.067)" width="1.251" height="3.463" x="257.911" y="10.833" ry=".626" rx="0"/><rect rx="0" ry=".626" y="10.797" x="259.816" height="3.463" width="1.251" transform="rotate(1.067)"/></g><g transform="scale(-1 1) rotate(35.85 51.856 -527.003)"><rect transform="rotate(1.067)" width="1.251" height="3.463" x="257.911" y="10.833" ry=".626" rx="0"/><rect rx="0" ry=".626" y="10.797" x="259.816" height="3.463" width="1.251" transform="rotate(1.067)"/></g><g transform="scale(-1 1) rotate(39.089 52.159 -471.02)"><rect transform="rotate(1.067)" width="1.251" height="3.463" x="257.911" y="10.833" ry=".626" rx="0"/><rect rx="0" ry=".626" y="10.797" x="259.816" height="3.463" width="1.251" transform="rotate(1.067)"/></g><g transform="scale(-1 1) rotate(42.141 52.403 -425.86)"><rect transform="rotate(1.067)" width="1.251" height="3.463" x="257.911" y="10.833" ry=".626" rx="0"/><rect rx="0" ry=".626" y="10.797" x="259.816" height="3.463" width="1.251" transform="rotate(1.067)"/></g><g transform="scale(-1 1) rotate(45.201 52.615 -386.44)"><rect transform="rotate(1.067)" width="1.251" height="3.463" x="257.911" y="10.833" ry=".626" rx="0"/><rect rx="0" ry=".626" y="10.797" x="259.816" height="3.463" width="1.251" transform="rotate(1.067)"/></g><g transform="scale(-1 1) rotate(48.174 52.798 -352.716)"><rect transform="rotate(1.067)" width="1.251" height="3.463" x="257.911" y="10.833" ry=".626" rx="0"/><rect rx="0" ry=".626" y="10.797" x="259.816" height="3.463" width="1.251" transform="rotate(1.067)"/></g><g transform="scale(-1 1) rotate(51.016 52.953 -323.935)"><rect transform="rotate(1.067)" width="1.251" height="3.463" x="257.911" y="10.833" ry=".626" rx="0"/><rect rx="0" ry=".626" y="10.797" x="259.816" height="3.463" width="1.251" transform="rotate(1.067)"/></g><g transform="scale(-1 1) rotate(54.078 53.103 -296.1)"><rect transform="rotate(1.067)" width="1.251" height="3.463" x="257.911" y="10.833" ry=".626" rx="0"/><rect rx="0" ry=".626" y="10.797" x="259.816" height="3.463" width="1.251" transform="rotate(1.067)"/></g><g transform="scale(-1 1) rotate(57.289 53.245 -269.882)"><rect transform="rotate(1.067)" width="1.251" height="3.463" x="257.911" y="10.833" ry=".626" rx="0"/><rect rx="0" ry=".626" y="10.797" x="259.816" height="3.463" width="1.251" transform="rotate(1.067)"/></g><g transform="scale(-1 1) rotate(60.295 53.365 -247.663)"><rect transform="rotate(1.067)" width="1.251" height="3.463" x="257.911" y="10.833" ry=".626" rx="0"/><rect rx="0" ry=".626" y="10.797" x="259.816" height="3.463" width="1.251" transform="rotate(1.067)"/></g><g transform="scale(-1 1) rotate(63.323 53.476 -227.222)"><rect transform="rotate(1.067)" width="1.251" height="3.463" x="257.911" y="10.833" ry=".626" rx="0"/><rect rx="0" ry=".626" y="10.797" x="259.816" height="3.463" width="1.251" transform="rotate(1.067)"/></g><g transform="scale(-1 1) rotate(66.525 53.582 -207.426)"><rect transform="rotate(1.067)" width="1.251" height="3.463" x="257.911" y="10.833" ry=".626" rx="0"/><rect rx="0" ry=".626" y="10.797" x="259.816" height="3.463" width="1.251" transform="rotate(1.067)"/></g><g transform="scale(-1 1) rotate(69.516 53.674 -190.407)"><rect transform="rotate(1.067)" width="1.251" height="3.463" x="257.911" y="10.833" ry=".626" rx="0"/><rect rx="0" ry=".626" y="10.797" x="259.816" height="3.463" width="1.251" transform="rotate(1.067)"/></g><g transform="scale(-1 1) rotate(72.887 53.77 -172.69)"><rect transform="rotate(1.067)" width="1.251" height="3.463" x="257.911" y="10.833" ry=".626" rx="0"/><rect rx="0" ry=".626" y="10.797" x="259.816" height="3.463" width="1.251" transform="rotate(1.067)"/></g><g transform="scale(-1 1) rotate(76.057 53.853 -157.275)"><rect transform="rotate(1.067)" width="1.251" height="3.463" x="257.911" y="10.833" ry=".626" rx="0"/><rect rx="0" ry=".626" y="10.797" x="259.816" height="3.463" width="1.251" transform="rotate(1.067)"/></g><g transform="scale(-1 1) rotate(79.15 53.93 -143.25)"><rect transform="rotate(1.067)" width="1.251" height="3.463" x="257.911" y="10.833" ry=".626" rx="0"/><rect rx="0" ry=".626" y="10.797" x="259.816" height="3.463" width="1.251" transform="rotate(1.067)"/></g><g transform="scale(-1 1) rotate(82.461 54.005 -129.22)"><rect transform="rotate(1.067)" width="1.251" height="3.463" x="257.911" y="10.833" ry=".626" rx="0"/><rect rx="0" ry=".626" y="10.797" x="259.816" height="3.463" width="1.251" transform="rotate(1.067)"/></g><g transform="scale(-1 1) rotate(85.413 54.068 -117.467)"><rect transform="rotate(1.067)" width="1.251" height="3.463" x="257.911" y="10.833" ry=".626" rx="0"/><rect rx="0" ry=".626" y="10.797" x="259.816" height="3.463" width="1.251" transform="rotate(1.067)"/></g><g transform="scale(-1 1) rotate(88.177 54.125 -107.044)"><rect transform="rotate(1.067)" width="1.251" height="3.463" x="257.911" y="10.833" ry=".626" rx="0"/><rect rx="0" ry=".626" y="10.797" x="259.816" height="3.463" width="1.251" transform="rotate(1.067)"/></g><g transform="scale(-1 1) rotate(88.284 54.127 -106.654)"><rect rx="0" ry=".626" y="10.833" x="257.911" height="3.463" width="1.251" transform="rotate(1.067)"/><rect transform="rotate(1.067)" width="1.251" height="3.463" x="259.816" y="10.797" ry=".626" rx="0"/></g><g transform="matrix(1 0 0 -1 -110.664 207.4)"><rect transform="rotate(1.067)" width="1.251" height="3.463" x="257.911" y="10.833" ry=".626" rx="0"/><rect rx="0" ry=".626" y="10.797" x="259.816" height="3.463" width="1.251" transform="rotate(1.067)"/></g><g transform="scale(1 -1) rotate(3.408 3689.559 -1861.178)"><rect transform="rotate(1.067)" width="1.251" height="3.463" x="257.911" y="10.833" ry=".626" rx="0"/><rect rx="0" ry=".626" y="10.797" x="259.816" height="3.463" width="1.251" transform="rotate(1.067)"/></g><g transform="scale(1 -1) rotate(6.786 1952.981 -934.583)"><rect transform="rotate(1.067)" width="1.251" height="3.463" x="257.911" y="10.833" ry=".626" rx="0"/><rect rx="0" ry=".626" y="10.797" x="259.816" height="3.463" width="1.251" transform="rotate(1.067)"/></g><g transform="scale(1 -1) rotate(10.228 1362.664 -619.604)"><rect transform="rotate(1.067)" width="1.251" height="3.463" x="257.911" y="10.833" ry=".626" rx="0"/><rect rx="0" ry=".626" y="10.797" x="259.816" height="3.463" width="1.251" transform="rotate(1.067)"/></g><g transform="scale(1 -1) rotate(13.351 1089.9 -474.063)"><rect transform="rotate(1.067)" width="1.251" height="3.463" x="257.911" y="10.833" ry=".626" rx="0"/><rect rx="0" ry=".626" y="10.797" x="259.816" height="3.463" width="1.251" transform="rotate(1.067)"/></g><g transform="scale(1 -1) rotate(16.705 910.185 -378.172)"><rect transform="rotate(1.067)" width="1.251" height="3.463" x="257.911" y="10.833" ry=".626" rx="0"/><rect rx="0" ry=".626" y="10.797" x="259.816" height="3.463" width="1.251" transform="rotate(1.067)"/></g><g transform="scale(1 -1) rotate(19.826 797.264 -317.92)"><rect transform="rotate(1.067)" width="1.251" height="3.463" x="257.911" y="10.833" ry=".626" rx="0"/><rect rx="0" ry=".626" y="10.797" x="259.816" height="3.463" width="1.251" transform="rotate(1.067)"/></g><g transform="scale(1 -1) rotate(22.943 714.87 -273.956)"><rect transform="rotate(1.067)" width="1.251" height="3.463" x="257.911" y="10.833" ry=".626" rx="0"/><rect rx="0" ry=".626" y="10.797" x="259.816" height="3.463" width="1.251" transform="rotate(1.067)"/></g><g transform="scale(1 -1) rotate(26.131 650.722 -239.729)"><rect transform="rotate(1.067)" width="1.251" height="3.463" x="257.911" y="10.833" ry=".626" rx="0"/><rect rx="0" ry=".626" y="10.797" x="259.816" height="3.463" width="1.251" transform="rotate(1.067)"/></g><g transform="scale(1 -1) rotate(29.463 598.28 -211.747)"><rect transform="rotate(1.067)" width="1.251" height="3.463" x="257.911" y="10.833" ry=".626" rx="0"/><rect rx="0" ry=".626" y="10.797" x="259.816" height="3.463" width="1.251" transform="rotate(1.067)"/></g><g transform="scale(1 -1) rotate(32.701 557.352 -189.909)"><rect transform="rotate(1.067)" width="1.251" height="3.463" x="257.911" y="10.833" ry=".626" rx="0"/><rect rx="0" ry=".626" y="10.797" x="259.816" height="3.463" width="1.251" transform="rotate(1.067)"/></g><g transform="scale(1 -1) rotate(35.85 524.464 -172.36)"><rect transform="rotate(1.067)" width="1.251" height="3.463" x="257.911" y="10.833" ry=".626" rx="0"/><rect rx="0" ry=".626" y="10.797" x="259.816" height="3.463" width="1.251" transform="rotate(1.067)"/></g><g transform="scale(1 -1) rotate(39.089 496 -157.172)"><rect transform="rotate(1.067)" width="1.251" height="3.463" x="257.911" y="10.833" ry=".626" rx="0"/><rect rx="0" ry=".626" y="10.797" x="259.816" height="3.463" width="1.251" transform="rotate(1.067)"/></g><g transform="scale(1 -1) rotate(42.141 473.037 -144.92)"><rect transform="rotate(1.067)" width="1.251" height="3.463" x="257.911" y="10.833" ry=".626" rx="0"/><rect rx="0" ry=".626" y="10.797" x="259.816" height="3.463" width="1.251" transform="rotate(1.067)"/></g><g transform="scale(1 -1) rotate(45.201 452.994 -134.225)"><rect transform="rotate(1.067)" width="1.251" height="3.463" x="257.911" y="10.833" ry=".626" rx="0"/><rect rx="0" ry=".626" y="10.797" x="259.816" height="3.463" width="1.251" transform="rotate(1.067)"/></g><g transform="scale(1 -1) rotate(48.174 435.846 -125.076)"><rect transform="rotate(1.067)" width="1.251" height="3.463" x="257.911" y="10.833" ry=".626" rx="0"/><rect rx="0" ry=".626" y="10.797" x="259.816" height="3.463" width="1.251" transform="rotate(1.067)"/></g><g transform="scale(1 -1) rotate(51.016 421.212 -117.268)"><rect transform="rotate(1.067)" width="1.251" height="3.463" x="257.911" y="10.833" ry=".626" rx="0"/><rect rx="0" ry=".626" y="10.797" x="259.816" height="3.463" width="1.251" transform="rotate(1.067)"/></g><g transform="scale(1 -1) rotate(54.078 407.059 -109.716)"><rect transform="rotate(1.067)" width="1.251" height="3.463" x="257.911" y="10.833" ry=".626" rx="0"/><rect rx="0" ry=".626" y="10.797" x="259.816" height="3.463" width="1.251" transform="rotate(1.067)"/></g><g transform="scale(1 -1) rotate(57.289 393.728 -102.603)"><rect transform="rotate(1.067)" width="1.251" height="3.463" x="257.911" y="10.833" ry=".626" rx="0"/><rect rx="0" ry=".626" y="10.797" x="259.816" height="3.463" width="1.251" transform="rotate(1.067)"/></g><g transform="scale(1 -1) rotate(60.295 382.43 -96.575)"><rect transform="rotate(1.067)" width="1.251" height="3.463" x="257.911" y="10.833" ry=".626" rx="0"/><rect rx="0" ry=".626" y="10.797" x="259.816" height="3.463" width="1.251" transform="rotate(1.067)"/></g><g transform="scale(1 -1) rotate(63.323 372.037 -91.029)"><rect transform="rotate(1.067)" width="1.251" height="3.463" x="257.911" y="10.833" ry=".626" rx="0"/><rect rx="0" ry=".626" y="10.797" x="259.816" height="3.463" width="1.251" transform="rotate(1.067)"/></g><g transform="scale(1 -1) rotate(66.525 361.972 -85.658)"><rect transform="rotate(1.067)" width="1.251" height="3.463" x="257.911" y="10.833" ry=".626" rx="0"/><rect rx="0" ry=".626" y="10.797" x="259.816" height="3.463" width="1.251" transform="rotate(1.067)"/></g><g transform="scale(1 -1) rotate(69.516 353.318 -81.04)"><rect transform="rotate(1.067)" width="1.251" height="3.463" x="257.911" y="10.833" ry=".626" rx="0"/><rect rx="0" ry=".626" y="10.797" x="259.816" height="3.463" width="1.251" transform="rotate(1.067)"/></g><g transform="scale(1 -1) rotate(72.887 344.31 -76.234)"><rect transform="rotate(1.067)" width="1.251" height="3.463" x="257.911" y="10.833" ry=".626" rx="0"/><rect rx="0" ry=".626" y="10.797" x="259.816" height="3.463" width="1.251" transform="rotate(1.067)"/></g><g transform="scale(1 -1) rotate(76.057 336.472 -72.052)"><rect transform="rotate(1.067)" width="1.251" height="3.463" x="257.911" y="10.833" ry=".626" rx="0"/><rect rx="0" ry=".626" y="10.797" x="259.816" height="3.463" width="1.251" transform="rotate(1.067)"/></g><g transform="scale(1 -1) rotate(79.15 329.34 -68.247)"><rect transform="rotate(1.067)" width="1.251" height="3.463" x="257.911" y="10.833" ry=".626" rx="0"/><rect rx="0" ry=".626" y="10.797" x="259.816" height="3.463" width="1.251" transform="rotate(1.067)"/></g><g transform="scale(1 -1) rotate(82.461 322.207 -64.44)"><rect transform="rotate(1.067)" width="1.251" height="3.463" x="257.911" y="10.833" ry=".626" rx="0"/><rect rx="0" ry=".626" y="10.797" x="259.816" height="3.463" width="1.251" transform="rotate(1.067)"/></g><g transform="scale(1 -1) rotate(85.413 316.231 -61.252)"><rect transform="rotate(1.067)" width="1.251" height="3.463" x="257.911" y="10.833" ry=".626" rx="0"/><rect rx="0" ry=".626" y="10.797" x="259.816" height="3.463" width="1.251" transform="rotate(1.067)"/></g><g transform="scale(1 -1) rotate(88.177 310.561 -58.066)"><rect transform="rotate(1.067)" width="1.251" height="3.463" x="257.911" y="10.833" ry=".626" rx="0"/><rect rx="0" ry=".626" y="10.797" x="259.816" height="3.463" width="1.251" transform="rotate(1.067)"/></g><g transform="scale(1 -1) rotate(88.284 310.363 -57.96)"><rect rx="0" ry=".626" y="10.833" x="257.911" height="3.463" width="1.251" transform="rotate(1.067)"/><rect transform="rotate(1.067)" width="1.251" height="3.463" x="259.816" y="10.797" ry=".626" rx="0"/></g><g transform="rotate(-176.592 203.877 105.546)"><rect transform="rotate(1.067)" width="1.251" height="3.463" x="257.911" y="10.833" ry=".626" rx="0"/><rect rx="0" ry=".626" y="10.797" x="259.816" height="3.463" width="1.251" transform="rotate(1.067)"/></g><g transform="rotate(-173.214 203.92 107.182)"><rect transform="rotate(1.067)" width="1.251" height="3.463" x="257.911" y="10.833" ry=".626" rx="0"/><rect rx="0" ry=".626" y="10.797" x="259.816" height="3.463" width="1.251" transform="rotate(1.067)"/></g><g transform="rotate(-169.772 203.966 108.854)"><rect transform="rotate(1.067)" width="1.251" height="3.463" x="257.911" y="10.833" ry=".626" rx="0"/><rect rx="0" ry=".626" y="10.797" x="259.816" height="3.463" width="1.251" transform="rotate(1.067)"/></g><g transform="rotate(-166.649 204.008 110.38)"><rect transform="rotate(1.067)" width="1.251" height="3.463" x="257.911" y="10.833" ry=".626" rx="0"/><rect rx="0" ry=".626" y="10.797" x="259.816" height="3.463" width="1.251" transform="rotate(1.067)"/></g><g transform="rotate(-163.295 204.052 112.029)"><rect transform="rotate(1.067)" width="1.251" height="3.463" x="257.911" y="10.833" ry=".626" rx="0"/><rect rx="0" ry=".626" y="10.797" x="259.816" height="3.463" width="1.251" transform="rotate(1.067)"/></g><g transform="rotate(-160.174 204.094 113.576)"><rect transform="rotate(1.067)" width="1.251" height="3.463" x="257.911" y="10.833" ry=".626" rx="0"/><rect rx="0" ry=".626" y="10.797" x="259.816" height="3.463" width="1.251" transform="rotate(1.067)"/></g><g transform="rotate(-157.056 204.137 115.137)"><rect transform="rotate(1.067)" width="1.251" height="3.463" x="257.911" y="10.833" ry=".626" rx="0"/><rect rx="0" ry=".626" y="10.797" x="259.816" height="3.463" width="1.251" transform="rotate(1.067)"/></g><g transform="rotate(-153.869 204.18 116.75)"><rect transform="rotate(1.067)" width="1.251" height="3.463" x="257.911" y="10.833" ry=".626" rx="0"/><rect rx="0" ry=".626" y="10.797" x="259.816" height="3.463" width="1.251" transform="rotate(1.067)"/></g><g transform="rotate(-150.537 204.227 118.459)"><rect transform="rotate(1.067)" width="1.251" height="3.463" x="257.911" y="10.833" ry=".626" rx="0"/><rect rx="0" ry=".626" y="10.797" x="259.816" height="3.463" width="1.251" transform="rotate(1.067)"/></g><g transform="rotate(-147.299 204.272 120.145)"><rect transform="rotate(1.067)" width="1.251" height="3.463" x="257.911" y="10.833" ry=".626" rx="0"/><rect rx="0" ry=".626" y="10.797" x="259.816" height="3.463" width="1.251" transform="rotate(1.067)"/></g><g transform="rotate(-144.15 204.318 121.812)"><rect transform="rotate(1.067)" width="1.251" height="3.463" x="257.911" y="10.833" ry=".626" rx="0"/><rect rx="0" ry=".626" y="10.797" x="259.816" height="3.463" width="1.251" transform="rotate(1.067)"/></g><g transform="rotate(-140.911 204.365 123.557)"><rect transform="rotate(1.067)" width="1.251" height="3.463" x="257.911" y="10.833" ry=".626" rx="0"/><rect rx="0" ry=".626" y="10.797" x="259.816" height="3.463" width="1.251" transform="rotate(1.067)"/></g><g transform="rotate(-137.859 204.41 125.234)"><rect transform="rotate(1.067)" width="1.251" height="3.463" x="257.911" y="10.833" ry=".626" rx="0"/><rect rx="0" ry=".626" y="10.797" x="259.816" height="3.463" width="1.251" transform="rotate(1.067)"/></g><g transform="rotate(-134.799 204.457 126.951)"><rect transform="rotate(1.067)" width="1.251" height="3.463" x="257.911" y="10.833" ry=".626" rx="0"/><rect rx="0" ry=".626" y="10.797" x="259.816" height="3.463" width="1.251" transform="rotate(1.067)"/></g><g transform="rotate(-131.826 204.503 128.655)"><rect transform="rotate(1.067)" width="1.251" height="3.463" x="257.911" y="10.833" ry=".626" rx="0"/><rect rx="0" ry=".626" y="10.797" x="259.816" height="3.463" width="1.251" transform="rotate(1.067)"/></g><g transform="rotate(-128.984 204.548 130.322)"><rect transform="rotate(1.067)" width="1.251" height="3.463" x="257.911" y="10.833" ry=".626" rx="0"/><rect rx="0" ry=".626" y="10.797" x="259.816" height="3.463" width="1.251" transform="rotate(1.067)"/></g><g transform="rotate(-125.922 204.598 132.163)"><rect transform="rotate(1.067)" width="1.251" height="3.463" x="257.911" y="10.833" ry=".626" rx="0"/><rect rx="0" ry=".626" y="10.797" x="259.816" height="3.463" width="1.251" transform="rotate(1.067)"/></g><g transform="rotate(-122.711 204.652 134.147)"><rect transform="rotate(1.067)" width="1.251" height="3.463" x="257.911" y="10.833" ry=".626" rx="0"/><rect rx="0" ry=".626" y="10.797" x="259.816" height="3.463" width="1.251" transform="rotate(1.067)"/></g><g transform="rotate(-119.705 204.704 136.061)"><rect transform="rotate(1.067)" width="1.251" height="3.463" x="257.911" y="10.833" ry=".626" rx="0"/><rect rx="0" ry=".626" y="10.797" x="259.816" height="3.463" width="1.251" transform="rotate(1.067)"/></g><g transform="rotate(-116.677 204.758 138.05)"><rect transform="rotate(1.067)" width="1.251" height="3.463" x="257.911" y="10.833" ry=".626" rx="0"/><rect rx="0" ry=".626" y="10.797" x="259.816" height="3.463" width="1.251" transform="rotate(1.067)"/></g><g transform="rotate(-113.475 204.817 140.224)"><rect transform="rotate(1.067)" width="1.251" height="3.463" x="257.911" y="10.833" ry=".626" rx="0"/><rect rx="0" ry=".626" y="10.797" x="259.816" height="3.463" width="1.251" transform="rotate(1.067)"/></g><g transform="rotate(-110.484 204.874 142.327)"><rect transform="rotate(1.067)" width="1.251" height="3.463" x="257.911" y="10.833" ry=".626" rx="0"/><rect rx="0" ry=".626" y="10.797" x="259.816" height="3.463" width="1.251" transform="rotate(1.067)"/></g><g transform="rotate(-107.113 204.94 144.792)"><rect transform="rotate(1.067)" width="1.251" height="3.463" x="257.911" y="10.833" ry=".626" rx="0"/><rect rx="0" ry=".626" y="10.797" x="259.816" height="3.463" width="1.251" transform="rotate(1.067)"/></g><g transform="rotate(-103.943 205.006 147.21)"><rect transform="rotate(1.067)" width="1.251" height="3.463" x="257.911" y="10.833" ry=".626" rx="0"/><rect rx="0" ry=".626" y="10.797" x="259.816" height="3.463" width="1.251" transform="rotate(1.067)"/></g><g transform="rotate(-100.85 205.073 149.671)"><rect transform="rotate(1.067)" width="1.251" height="3.463" x="257.911" y="10.833" ry=".626" rx="0"/><rect rx="0" ry=".626" y="10.797" x="259.816" height="3.463" width="1.251" transform="rotate(1.067)"/></g><g transform="rotate(-97.539 205.148 152.43)"><rect transform="rotate(1.067)" width="1.251" height="3.463" x="257.911" y="10.833" ry=".626" rx="0"/><rect rx="0" ry=".626" y="10.797" x="259.816" height="3.463" width="1.251" transform="rotate(1.067)"/></g><g transform="rotate(-94.587 205.218 155.012)"><rect transform="rotate(1.067)" width="1.251" height="3.463" x="257.911" y="10.833" ry=".626" rx="0"/><rect rx="0" ry=".626" y="10.797" x="259.816" height="3.463" width="1.251" transform="rotate(1.067)"/></g><g transform="rotate(-91.823 204.89 157.132)"><rect transform="rotate(1.067)" width="1.251" height="3.463" x="257.911" y="10.833" ry=".626" rx="0"/><rect rx="0" ry=".626" y="10.797" x="259.816" height="3.463" width="1.251" transform="rotate(1.067)"/></g><g transform="rotate(-91.716 204.891 157.232)"><rect rx="0" ry=".626" y="10.833" x="257.911" height="3.463" width="1.251" transform="rotate(1.067)"/><rect transform="rotate(1.067)" width="1.251" height="3.463" x="259.816" y="10.797" ry=".626" rx="0"/></g></g></svg>