<?xml version="1.0" encoding="UTF-8" standalone="no"?>
<svg
   xmlns:dc="http://purl.org/dc/elements/1.1/"
   xmlns:cc="http://creativecommons.org/ns#"
   xmlns:rdf="http://www.w3.org/1999/02/22-rdf-syntax-ns#"
   xmlns:svg="http://www.w3.org/2000/svg"
   xmlns="http://www.w3.org/2000/svg"
   xmlns:sodipodi="http://sodipodi.sourceforge.net/DTD/sodipodi-0.dtd"
   xmlns:inkscape="http://www.inkscape.org/namespaces/inkscape"
   width="350"
   height="350"
   viewBox="0 0 92.604166 92.60417"
   version="1.1"
   id="svg8"
   inkscape:version="1.0 (4035a4f, 2020-05-01)"
   sodipodi:docname="volume.svg">
  <defs
     id="defs2" />
  <sodipodi:namedview
     units="px"
     inkscape:pagecheckerboard="true"
     id="base"
     pagecolor="#ffffff"
     bordercolor="#666666"
     borderopacity="1.0"
     inkscape:pageopacity="0.0"
     inkscape:pageshadow="2"
     inkscape:zoom="0.47897816"
     inkscape:cx="365.99482"
     inkscape:cy="599.14118"
     inkscape:document-units="mm"
     inkscape:current-layer="g850"
     inkscape:document-rotation="0"
     showgrid="false"
     inkscape:window-width="1252"
     inkscape:window-height="872"
     inkscape:window-x="0"
     inkscape:window-y="0"
     inkscape:window-maximized="0" />
  <metadata
     id="metadata5">
    <rdf:RDF>
      <cc:Work
         rdf:about="">
        <dc:format>image/svg+xml</dc:format>
        <dc:type
           rdf:resource="http://purl.org/dc/dcmitype/StillImage" />
        <dc:title></dc:title>
      </cc:Work>
    </rdf:RDF>
  </metadata>
  <g
     inkscape:label="Layer 1"
     inkscape:groupmode="layer"
     id="layer1">
    <g
       id="g850"
       transform="matrix(0.8457564,0,0,0.8457564,70.681372,98.955271)">
      <path
         id="path833"
         d="m -25.906089,-12.224038 a 4,4 0 0 1 -2.52,-1.04 l -29.2,-26.960002 h -16.2 a 5,5 0 0 1 -5,-5 v -34 a 5,5 0 0 1 5,-5 h 16.2 l 29.12,-26.92 a 3.48,3.48 0 0 1 4,-0.84 3.48,3.48 0 0 1 1.68,3.48 v 92.559002 a 3.482,3.482 0 0 1 -1.84,3.441 2.956,2.956 0 0 1 -1.24,0.28 z m -28.92,-30.880002 28,25.880002 v -89.960002 l -28,25.84 z m -19,-37.12 a 1,1 0 0 0 -1,1 v 34 a 1,1 0 0 0 1,1 h 15 v -36 z m 85.04,49.561 -3.2400004,-2.32 a 49.48,49.48 0 0 0 9.2000004,-29.12 49.53,49.53 0 0 0 -9.3200004,-29.28 l 3.2400004,-2.36 a 53.516,53.516 0 0 1 10.08,31.64 53.436,53.436 0 0 1 -9.96,31.44 z m -8.8000004,-8.881 -3.32000002,-2.24 a 36.8,36.8 0 0 0 0,-40.759 l 3.32000002,-2.24 a 40.798,40.798 0 0 1 0,45.239 z m -8.8009998,-9 -3.439,-2 a 22.965,22.965 0 0 0 3,-11.56 22.674,22.674 0 0 0 -3.16,-11.64 l 3.439,-2.04 a 26.643,26.643 0 0 1 3.7209998,13.68 26.962,26.962 0 0 1 -3.5999998,13.56 z"
         style="fill:#ffffff" />
    </g>
  </g>
</svg>
