<?xml version="1.0" standalone="no"?>
<!DOCTYPE svg PUBLIC "-//W3C//DTD SVG 20010904//EN"
 "http://www.w3.org/TR/2001/REC-SVG-20010904/DTD/svg10.dtd">
<svg version="1.0" xmlns="http://www.w3.org/2000/svg"
 width="200.000000pt" height="200.000000pt" viewBox="0 0 200.000000 200.000000"
 preserveAspectRatio="xMidYMid meet">
<metadata>
Created by potrace 1.11, written by Peter Selinger 2001-2013
</metadata>
<g transform="translate(0.000000,200.000000) scale(0.100000,-0.100000)"
fill="#000000" stroke="none">
<path d="M900 1997 c-3 -3 -26 -7 -51 -10 -204 -24 -448 -155 -591 -316 -225
-255 -303 -579 -224 -934 11 -48 66 -180 92 -219 13 -21 24 -40 24 -42 0 -16
75 -111 135 -172 114 -115 250 -202 390 -249 56 -19 56 -19 145 -38 64 -14
295 -16 350 -3 14 3 39 8 55 12 52 10 148 45 218 80 251 125 453 366 518 619
40 156 46 352 16 492 -63 281 -254 532 -507 665 -103 54 -151 72 -270 96 -78
17 -289 30 -300 19z m314 -96 c96 -23 227 -80 301 -131 224 -154 375 -404 401
-664 13 -134 12 -137 -15 -148 -91 -36 -389 -108 -511 -123 -25 -3 -72 -8
-105 -12 -81 -10 -482 -10 -570 0 -134 15 -311 47 -420 77 -234 63 -223 58
-219 102 1 18 5 65 9 103 21 247 167 497 380 651 105 76 281 146 404 161 25 3
47 6 49 8 12 10 223 -7 296 -24z m-974 -1066 c150 -41 355 -77 520 -92 154
-14 581 -6 610 12 3 2 30 6 60 10 84 10 274 52 383 84 l98 29 -6 -41 c-10 -63
-60 -207 -91 -263 -131 -238 -337 -402 -583 -465 -96 -25 -128 -29 -226 -30
-290 -2 -556 130 -743 368 -75 95 -172 326 -172 408 0 22 2 23 33 14 17 -6 70
-21 117 -34z"/>
<path d="M1289 1636 c-75 -27 -127 -78 -153 -154 -46 -130 -17 -261 80 -359
106 -106 257 -109 358 -7 56 56 80 123 79 220 -2 207 -191 362 -364 300z m168
-89 c42 -22 87 -82 108 -142 28 -83 4 -197 -53 -248 -32 -29 -100 -45 -151
-34 -58 12 -131 84 -154 150 -32 95 -3 220 62 266 57 41 119 43 188 8z"/>
</g>
</svg>
