<svg xmlns="http://www.w3.org/2000/svg" width="53.334" height="48.662"><g data-name="noun_Tie Fighter_2202280"><path data-name="Path 33" d="M52.985 19.592h-2.024a.186.186 0 01-.187-.179L49.945.335A.349.349 0 0049.6 0h-2.575a.349.349 0 00-.349.333l-.835 19.283a.188.188 0 01-.1.16l-1.971.987a.348.348 0 00-.192.312v1.147a.191.191 0 01-.075.149.188.188 0 01-.112.037.172.172 0 01-.053-.008l-7.179-2.157a.183.183 0 01-.117-.1 10.313 10.313 0 00-3.725-4.387 10.248 10.248 0 00-11.3 0 10.308 10.308 0 00-3.728 4.389.183.183 0 01-.117.1L9.987 22.4a.185.185 0 01-.053.008.188.188 0 01-.112-.037.183.183 0 01-.075-.149v-1.149a.351.351 0 00-.192-.312l-1.971-.987a.184.184 0 01-.1-.16L6.644.334a.349.349 0 00-.349-.333H3.72a.349.349 0 00-.349.333l-.829 19.08a.187.187 0 01-.187.179H.349a.351.351 0 00-.349.349v8.782a.351.351 0 00.349.349h2.006a.186.186 0 01.187.179l.829 19.078a.349.349 0 00.349.333h2.571a.349.349 0 00.349-.333l.837-19.286a.188.188 0 01.1-.16l1.971-.987a.348.348 0 00.192-.312v-1.147a.191.191 0 01.075-.149.188.188 0 01.112-.037.172.172 0 01.053.008l7.179 2.152a.183.183 0 01.117.1 10.313 10.313 0 003.725 4.387 10.269 10.269 0 0015.027-4.387.183.183 0 01.117-.1l7.181-2.155a.185.185 0 01.053-.008.188.188 0 01.112.037.183.183 0 01.075.149v1.149a.351.351 0 00.192.312l1.971.987a.184.184 0 01.1.16l.837 19.286a.349.349 0 00.349.333H49.6a.349.349 0 00.349-.333l.829-19.078a.187.187 0 01.187-.179h2.024a.351.351 0 00.349-.349v-8.782a.349.349 0 00-.353-.349zm-50.5 8.054a.191.191 0 01-.051.139.188.188 0 01-.136.059h-.866a.187.187 0 01-.187-.187v-6.648a.187.187 0 01.187-.187H2.3a.188.188 0 01.136.059.191.191 0 01.051.139l-.144 3.3v.029zm2.981 19.608a.187.187 0 01-.187.179h-.522a.186.186 0 01-.187-.179l-.963-22.112a.191.191 0 01.051-.139.188.188 0 01.136-.059h2.451a.188.188 0 01.136.059.191.191 0 01.051.139zm.912-23.6a.188.188 0 01-.136.059H3.795a.188.188 0 01-.136-.059.191.191 0 01-.051-.139l.963-22.112a.187.187 0 01.187-.179h.525a.186.186 0 01.187.179l.963 22.112a.191.191 0 01-.052.144zm2.149 3.269a.187.187 0 01-.1.168l-.584.293a.187.187 0 01-.269-.176l.125-2.867v-.029l-.125-2.867a.185.185 0 01.085-.165.2.2 0 01.1-.029.171.171 0 01.083.019l.584.293a.187.187 0 01.1.168zm4.123-1.408a.191.191 0 01-.075.149.188.188 0 01-.112.037.172.172 0 01-.053-.008l-2.52-.755a.186.186 0 01-.133-.179V23.9a.186.186 0 01.133-.179l2.52-.755a.185.185 0 01.053-.008.188.188 0 01.112.037.183.183 0 01.075.149zm3.971 1.347a.189.189 0 01-.128.051.172.172 0 01-.053-.008l-2.424-.728a.186.186 0 01-.133-.179v-.869a.187.187 0 01.187-.187h2.176a.189.189 0 01.187.173 10.263 10.263 0 00.243 1.568.186.186 0 01-.052.184zm.053-4.891a10.279 10.279 0 00-.243 1.565.188.188 0 01-.187.173h-2.172a.187.187 0 01-.187-.187v-.869a.186.186 0 01.133-.179l2.424-.725a.185.185 0 01.053-.008.189.189 0 01.128.051.186.186 0 01.055.185zm3.237 8.248h-.008a.191.191 0 01-.136-.067 9.021 9.021 0 01-.035-11.616.191.191 0 01.136-.067h.008a.2.2 0 01.1.029l.4.4a.616.616 0 00.869-.864l-.141-.141v-.005l-.227-.224a.187.187 0 01-.056-.141.191.191 0 01.067-.136 9.053 9.053 0 012.653-1.536 8.958 8.958 0 013.125-.557h.011a8.937 8.937 0 013.1.549 9.037 9.037 0 012.637 1.515.182.182 0 01.067.136.187.187 0 01-.056.141l-1.792 1.792a.19.19 0 01-.133.056.2.2 0 01-.115-.037 6.131 6.131 0 00-5.731-.92 6.085 6.085 0 00-1.733.941.192.192 0 01-.115.04.177.177 0 01-.115-.04l-.093-.093a.616.616 0 00-.867.867l.1.1-.005.005a.185.185 0 01-.011.216 6.183 6.183 0 00-.955 1.744 6.13 6.13 0 00.008 4.072 6.2 6.2 0 00.971 1.757.187.187 0 01-.013.248l-1.784 1.789a.209.209 0 01-.127.053zm6.144-9.054a.188.188 0 01-.141.2 2.958 2.958 0 00-.776.32.2.2 0 01-.1.027.192.192 0 01-.133-.053l-1.083-1.072a.2.2 0 01-.056-.149.192.192 0 01.08-.139 4.869 4.869 0 011.981-.816.13.13 0 01.032 0 .177.177 0 01.12.045.185.185 0 01.067.144v1.464a.063.063 0 01.013.035zm-2.024 1.349a.189.189 0 01.027.232 2.96 2.96 0 00-.347.821.188.188 0 01-.181.141h-1.52a.189.189 0 01-.144-.067.2.2 0 01-.043-.152 4.887 4.887 0 01.845-2.021.18.18 0 01.136-.077h.016a.192.192 0 01.133.053zm-2.165 2.491a.185.185 0 01.144-.067h1.52a.188.188 0 01.181.141 3.136 3.136 0 00.363.851.185.185 0 01-.027.229l-1.072 1.072a.19.19 0 01-.133.056h-.012a.184.184 0 01-.136-.077 4.929 4.929 0 01-.864-2.051.189.189 0 01.04-.148zm1.995 3.083l1.077-1.077a.19.19 0 01.133-.056.2.2 0 01.093.024 2.928 2.928 0 00.752.3.188.188 0 01.141.181v1.52a.189.189 0 01-.067.144.187.187 0 01-.12.045.13.13 0 01-.032 0 4.824 4.824 0 01-1.952-.8.192.192 0 01-.08-.139.178.178 0 01.059-.136zm.987-3.763a1.824 1.824 0 111.824 1.824 1.827 1.827 0 01-1.821-1.818zm2.437-3.141v-1.52a.189.189 0 01.067-.144.187.187 0 01.12-.045.13.13 0 01.032 0 4.829 4.829 0 011.96.8.19.19 0 01.027.288l-1.077 1.077a.19.19 0 01-.133.056.165.165 0 01-.093-.027 2.935 2.935 0 00-.76-.309.188.188 0 01-.139-.17zm0 6.283a.188.188 0 01.141-.181 2.956 2.956 0 00.736-.3.177.177 0 01.091-.024.179.179 0 01.133.056l1.08 1.08a.183.183 0 01.053.149.192.192 0 01-.08.139 4.923 4.923 0 01-1.936.787.13.13 0 01-.032 0 .177.177 0 01-.12-.045.185.185 0 01-.067-.144v-1.523zm2-1.291a.189.189 0 01-.027-.232 2.946 2.946 0 00.371-.861.188.188 0 01.181-.141h1.52a.189.189 0 01.144.067.2.2 0 01.043.152 4.845 4.845 0 01-.877 2.067.189.189 0 01-.136.077h-.013a.19.19 0 01-.133-.056zm2.192-2.531a.185.185 0 01-.144.067h-1.52a.188.188 0 01-.181-.141 3.09 3.09 0 00-.357-.84.189.189 0 01.027-.232l1.072-1.072a.19.19 0 01.133-.056h.016a.184.184 0 01.136.077 4.9 4.9 0 01.861 2.043.2.2 0 01-.042.16zm3.669 3.845a8.995 8.995 0 01-1.459 2.539c-.037.048-.077.093-.117.141a.176.176 0 01-.1.061l-.069.064-.115-.115a.616.616 0 00-.867.867l.083.083-.035.032v.021a.184.184 0 01-.069.136 8.988 8.988 0 01-5.723 2.048 8.952 8.952 0 01-3.1-.549 9.138 9.138 0 01-2.64-1.512.194.194 0 01-.069-.136.187.187 0 01.056-.141l1.792-1.792a.19.19 0 01.133-.056.186.186 0 01.115.037 6.173 6.173 0 001.723.923 6.13 6.13 0 005.691-.907.184.184 0 01.112-.037h.021l.027-.032.507.507a.616.616 0 00.869-.864l-.568-.568.2-.229.029.027a6.133 6.133 0 00.9-5.752 6.185 6.185 0 00-.965-1.752.185.185 0 01.016-.248l1.789-1.789a.19.19 0 01.133-.056h.008a.191.191 0 01.136.067 9.015 9.015 0 011.557 8.984zm4.317-1.493a.186.186 0 01-.133.179l-2.424.725a.185.185 0 01-.053.008.189.189 0 01-.128-.051.186.186 0 01-.053-.179 10.745 10.745 0 00.243-1.571.191.191 0 01.187-.173h2.176a.187.187 0 01.187.187v.875zm0-2.475a.187.187 0 01-.187.187H37.1a.188.188 0 01-.187-.173 10.745 10.745 0 00-.243-1.571.186.186 0 01.053-.179.189.189 0 01.128-.051.172.172 0 01.053.008l2.424.725a.186.186 0 01.133.179zm4.123 1.235a.186.186 0 01-.133.179l-2.52.757a.185.185 0 01-.053.008.188.188 0 01-.112-.037.183.183 0 01-.075-.149v-2.384a.191.191 0 01.075-.149.188.188 0 01.112-.037.172.172 0 01.053.008l2.52.755a.186.186 0 01.133.179zm2.189 2.448a.185.185 0 01-.085.165.2.2 0 01-.1.029.171.171 0 01-.083-.019l-.584-.293a.187.187 0 01-.1-.168v-5.192a.187.187 0 01.1-.168l.584-.293a.187.187 0 01.269.176l-.125 2.867v.029zm3 20.043a.187.187 0 01-.187.179h-.525a.186.186 0 01-.187-.179l-.963-22.112a.191.191 0 01.051-.139.188.188 0 01.136-.059h2.451a.188.188 0 01.136.059.191.191 0 01.051.139zm.912-23.6a.188.188 0 01-.136.059h-2.446a.188.188 0 01-.136-.059.191.191 0 01-.051-.139l.963-22.112a.187.187 0 01.187-.179h.525a.186.186 0 01.187.179l.963 22.112a.191.191 0 01-.051.15zm2.416 3.995a.187.187 0 01-.187.187h-.885a.188.188 0 01-.136-.059.191.191 0 01-.051-.139l.144-3.3v-.029l-.144-3.3a.191.191 0 01.051-.139.188.188 0 01.136-.059h.885a.187.187 0 01.187.187z" fill="#fff"/></g></svg>