<svg xmlns="http://www.w3.org/2000/svg" width="417.751" height="736"><g data-name="Group 43" fill="none" stroke="#707070"><path data-name="Line 6" d="M327.751 359.367l36.112 33.334"/><path data-name="Line 27" d="M327.751 459.369l36.112 33.334"/><path data-name="Line 12" d="M327.751 409.368l36.112 33.334"/><path data-name="Line 22" d="M327.751 509.37l36.112 33.334"/><path data-name="Line 35" d="M327.751 567.704l36.112 33.334"/><path data-name="Line 7" d="M327.751 367.7l36.112 33.334"/><path data-name="Line 28" d="M327.751 467.702l36.112 33.334"/><path data-name="Line 13" d="M327.751 417.701l36.112 33.334"/><path data-name="Line 23" d="M327.751 517.703l36.112 33.334"/><path data-name="Line 34" d="M327.751 576.038l36.112 33.334"/><path data-name="Line 8" d="M327.751 376.034l36.112 33.334"/><path data-name="Line 29" d="M327.751 476.036l36.112 33.334"/><path data-name="Line 14" d="M327.751 426.035l36.112 33.334"/><path data-name="Line 18" d="M327.751 526.037l36.112 33.334"/><path data-name="Line 33" d="M327.751 584.371l36.112 33.334"/><path data-name="Line 9" d="M327.751 384.367l36.112 33.334"/><path data-name="Line 24" d="M327.751 484.369l36.112 33.334"/><path data-name="Line 15" d="M327.751 434.368l36.112 33.334"/><path data-name="Line 19" d="M327.751 534.37l36.112 33.334"/><path data-name="Line 31" d="M327.751 592.705l36.112 33.334"/><path data-name="Line 10" d="M327.751 392.701l36.112 33.334"/><path data-name="Line 25" d="M327.751 492.703l36.112 33.334"/><path data-name="Line 16" d="M327.751 442.702l36.112 33.334"/><path data-name="Line 20" d="M327.751 542.704l36.112 33.334"/><path data-name="Line 32" d="M327.751 601.038l36.112 33.334"/><path data-name="Line 11" d="M327.751 401.034l36.112 33.334"/><path data-name="Line 26" d="M327.751 501.036l36.112 33.334"/><path data-name="Line 36" d="M327.751 559.371l36.112 33.334"/><path data-name="Line 17" d="M327.751 451.035l36.112 33.334"/><path data-name="Line 21" d="M327.751 551.037l36.112 33.334"/><path data-name="Line 30" d="M327.751 609.372l36.112 33.334"/></g><path data-name="Line 1" fill="none" stroke="#fff" opacity=".496" d="M.751 46h414"/><path data-name="Line 2" fill="none" stroke="#fff" opacity=".496" d="M.751 18h417"/><path data-name="Line 3" fill="none" stroke="#707070" d="M371.751 0v736"/><path data-name="Line 4" fill="none" stroke="#707070" d="M283.751 0v27"/><g data-name="Group 3" transform="translate(.251 -.5)" fill="#fff"><circle data-name="Ellipse 1" cx="1" cy="1" r="1" transform="translate(282 29)" opacity=".498"/><circle data-name="Ellipse 2" cx="1" cy="1" r="1" transform="translate(282 32)" opacity=".498"/><circle data-name="Ellipse 3" cx="1" cy="1" r="1" transform="translate(282 35)" opacity=".498"/></g><path data-name="Line 5" fill="none" stroke="#707070" d="M201.751 33h79"/><g data-name="Group 2" fill="none" stroke="#707070"><path data-name="Line 6" d="M238.135 480.115l8 7.385"/><path data-name="Line 27" d="M238.135 502.269l8 7.385"/><path data-name="Line 12" d="M238.135 491.192l8 7.385"/><path data-name="Line 22" d="M238.135 513.346l8 7.385"/><path data-name="Line 35" d="M238.135 526.269l8 7.385"/><path data-name="Line 7" d="M238.135 481.961l8 7.385"/><path data-name="Line 28" d="M238.135 504.115l8 7.385"/><path data-name="Line 13" d="M238.135 493.038l8 7.385"/><path data-name="Line 23" d="M238.135 515.192l8 7.385"/><path data-name="Line 34" d="M238.135 528.115l8 7.385"/><path data-name="Line 8" d="M238.135 483.807l8 7.385"/><path data-name="Line 29" d="M238.135 505.961l8 7.385"/><path data-name="Line 14" d="M238.135 494.884l8 7.385"/><path data-name="Line 18" d="M238.135 517.038l8 7.385"/><path data-name="Line 33" d="M238.135 529.961l8 7.385"/><path data-name="Line 9" d="M238.135 485.653l8 7.385"/><path data-name="Line 24" d="M238.135 507.807l8 7.385"/><path data-name="Line 15" d="M238.135 496.73l8 7.385"/><path data-name="Line 19" d="M238.135 518.884l8 7.385"/><path data-name="Line 31" d="M238.135 531.807l8 7.385"/><path data-name="Line 10" d="M238.135 487.5l8 7.385"/><path data-name="Line 25" d="M238.135 509.653l8 7.385"/><path data-name="Line 16" d="M238.135 498.576l8 7.385"/><path data-name="Line 20" d="M238.135 520.73l8 7.385"/><path data-name="Line 32" d="M238.135 533.653l8 7.385"/><path data-name="Line 11" d="M238.135 489.346l8 7.385"/><path data-name="Line 26" d="M238.135 511.5l8 7.385"/><path data-name="Line 36" d="M238.135 524.423l8 7.385"/><path data-name="Line 17" d="M238.135 500.423l8 7.385"/><path data-name="Line 21" d="M238.135 522.576l8 7.385"/><path data-name="Line 30" d="M238.135 535.499l8 7.385"/></g><path data-name="Line 37" fill="none" stroke="#707070" d="M250.751 543h97"/><path data-name="Line 38" fill="none" stroke="#707070" d="M245.751 548v63"/><g data-name="Group 9" transform="translate(1.251 126.5)" fill="#fff"><circle data-name="Ellipse 1" cx="1" cy="1" r="1" transform="rotate(90 -29 387)"/><circle data-name="Ellipse 2" cx="1" cy="1" r="1" transform="rotate(90 -30.5 385.5)"/><circle data-name="Ellipse 3" cx="1" cy="1" r="1" transform="rotate(90 -32 384)"/></g><g data-name="Group 8" transform="translate(1.251 126.5)" fill="#fff"><circle data-name="Ellipse 1" cx="1" cy="1" r="1" transform="rotate(180 122.5 247.5)"/><circle data-name="Ellipse 2" cx="1" cy="1" r="1" transform="rotate(180 122.5 246)"/><circle data-name="Ellipse 3" cx="1" cy="1" r="1" transform="rotate(180 122.5 244.5)"/></g><path data-name="Line 48" fill="none" stroke="#707070" d="M392.751 134.352V294"/><g data-name="Group 7" transform="rotate(180 196.625 152.25)" fill="#fff"><circle data-name="Ellipse 1" cx="1" cy="1" r="1" opacity=".498"/><circle data-name="Ellipse 2" cx="1" cy="1" r="1" transform="translate(0 3)" opacity=".498"/><circle data-name="Ellipse 3" cx="1" cy="1" r="1" transform="translate(0 6)" opacity=".498"/></g><text data-name="TIE FIGHTER" transform="translate(64.251 37.5)" fill="#fff" font-size="15" font-family="Aurebesh-Bold, Aurebesh" font-weight="700" opacity=".501"><tspan x="0" y="0">TIE FIGHTER</tspan></text><g data-name="Group 6" fill="none" stroke="#707070"><path data-name="Line 35" d="M175.029 436.356l13.575-14.707"/><path data-name="Line 39" d="M113.939 436.356l13.575-14.707"/><path data-name="Line 34" d="M181.816 436.356l13.575-14.707"/><path data-name="Line 40" d="M120.727 436.356l13.575-14.707"/><path data-name="Line 33" d="M188.604 436.356l13.575-14.707"/><path data-name="Line 41" d="M127.515 436.356l13.575-14.707"/><path data-name="Line 31" d="M195.392 436.356l13.575-14.707"/><path data-name="Line 45" d="M134.302 436.356l13.575-14.707"/><path data-name="Path 1" d="M154.666 436.356l6.788-7.354 1.7-1.838 5.087-5.515"/><path data-name="Line 42" d="M93.576 436.356l13.575-14.707"/><path data-name="Line 32" d="M202.18 436.356l13.575-14.707"/><path data-name="Line 46" d="M141.09 436.356l13.575-14.707"/><path data-name="Line 36" d="M168.241 436.356l13.575-14.707"/><path data-name="Line 43" d="M107.151 436.356l13.575-14.707"/><path data-name="Line 21" d="M161.453 436.356l13.575-14.707"/><path data-name="Line 44" d="M100.364 436.356l13.575-14.707"/><path data-name="Line 30" d="M208.967 436.356l13.575-14.707"/><path data-name="Line 47" d="M147.878 436.356l13.575-14.707"/></g><g data-name="Group 41"><g data-name="Group 38" fill="none" stroke="#707070"><path data-name="Line 6" d="M37.67 712.5l-20.535-18.955"/><path data-name="Line 27" d="M37.67 655.634l-20.535-18.955"/><path data-name="Line 12" d="M37.67 684.067l-20.535-18.955"/><path data-name="Line 22" d="M37.67 627.201l-20.535-18.955"/><path data-name="Line 35" d="M37.67 594.03l-20.535-18.955"/><path data-name="Line 7" d="M37.67 707.761l-20.535-18.955"/><path data-name="Line 28" d="M37.67 650.895L17.135 631.94"/><path data-name="Line 13" d="M37.67 679.328l-20.535-18.955"/><path data-name="Line 23" d="M37.67 622.462l-20.535-18.955"/><path data-name="Line 34" d="M37.67 589.291l-20.535-18.955"/><path data-name="Line 8" d="M37.67 703.022l-20.535-18.955"/><path data-name="Line 29" d="M37.67 646.157l-20.535-18.955"/><path data-name="Line 14" d="M37.67 674.589l-20.535-18.955"/><path data-name="Line 18" d="M37.67 617.724l-20.535-18.955"/><path data-name="Line 33" d="M37.67 584.552l-20.535-18.955"/><path data-name="Line 9" d="M37.67 698.284l-20.535-18.955"/><path data-name="Line 24" d="M37.67 641.418l-20.535-18.955"/><path data-name="Line 15" d="M37.67 669.851l-20.535-18.955"/><path data-name="Line 19" d="M37.67 612.985L17.135 594.03"/><path data-name="Line 31" d="M37.67 579.813l-20.535-18.955"/><path data-name="Line 10" d="M37.67 693.545L17.135 674.59"/><path data-name="Line 25" d="M37.67 636.679l-20.535-18.955"/><path data-name="Line 16" d="M37.67 665.112l-20.535-18.955"/><path data-name="Line 20" d="M37.67 608.246l-20.535-18.955"/><path data-name="Line 32" d="M37.67 575.074l-20.535-18.955"/><path data-name="Line 11" d="M37.67 688.806l-20.535-18.955"/><path data-name="Line 26" d="M37.67 631.94l-20.535-18.955"/><path data-name="Line 36" d="M37.67 598.768l-20.535-18.955"/><path data-name="Line 17" d="M37.67 660.373l-20.535-18.955"/><path data-name="Line 21" d="M37.67 603.507l-20.535-18.955"/><path data-name="Line 30" d="M37.67 570.335L17.135 551.38"/></g><path data-name="Line 65" fill="none" stroke="#707070" d="M18.122 538.249V376.536"/><g data-name="Group 40" transform="rotate(180 10.943 184.875)" fill="#fff"><circle data-name="Ellipse 1" cx="2.2" cy="2.2" transform="rotate(180 2.2 10.056)" r="2.2"/><circle data-name="Ellipse 2" cx="2.2" cy="2.2" transform="rotate(180 2.2 5.97)" r="2.2"/><ellipse data-name="Ellipse 3" cx="2.2" cy="2.514" rx="2.2" ry="2.514" transform="rotate(180 2.2 2.514)"/></g></g><g data-name="Group 1" fill="none" stroke="#707070"><path data-name="Line 6" d="M93.61 108.349l15.169-16.433"/><path data-name="Line 27" d="M139.116 108.349l15.169-16.433"/><path data-name="Line 12" d="M116.363 108.349l15.169-16.433"/><path data-name="Line 22" d="M161.868 108.349l15.169-16.433"/><path data-name="Line 35" d="M188.413 108.349l15.169-16.433"/><path data-name="Line 7" d="M97.402 108.349l15.169-16.433"/><path data-name="Line 28" d="M142.908 108.349l15.169-16.433"/><path data-name="Line 13" d="M120.155 108.349l15.169-16.433"/><path data-name="Line 23" d="M165.66 108.349l15.169-16.433"/><path data-name="Line 34" d="M192.205 108.349l15.169-16.433"/><path data-name="Line 8" d="M101.194 108.349l15.169-16.433"/><path data-name="Line 29" d="M146.7 108.349l15.169-16.433"/><path data-name="Line 14" d="M123.947 108.349l15.169-16.433"/><path data-name="Line 18" d="M169.453 108.349l15.169-16.433"/><path data-name="Line 33" d="M195.998 108.349l15.169-16.433"/><path data-name="Line 9" d="M104.986 108.349l15.169-16.433"/><path data-name="Line 24" d="M150.492 108.349l15.169-16.433"/><path data-name="Line 15" d="M127.739 108.349l15.169-16.433"/><path data-name="Line 19" d="M173.245 108.349l15.169-16.433"/><path data-name="Line 31" d="M199.79 108.349l15.169-16.433"/><path data-name="Line 10" d="M108.779 108.349l15.169-16.433"/><path data-name="Line 25" d="M154.284 108.349l15.169-16.433"/><path data-name="Line 16" d="M131.531 108.349L146.7 91.916"/><path data-name="Line 20" d="M177.037 108.349l15.169-16.433"/><path data-name="Line 32" d="M203.582 108.349l15.169-16.433"/><path data-name="Line 11" d="M112.571 108.349l15.169-16.433"/><path data-name="Line 26" d="M158.076 108.349l15.169-16.433"/><path data-name="Line 36" d="M184.621 108.349l15.169-16.433"/><path data-name="Line 17" d="M135.323 108.349l15.169-16.433"/><path data-name="Line 21" d="M180.829 108.349l15.169-16.433"/><path data-name="Line 30" d="M207.374 108.349l15.169-16.433"/></g><g data-name="Group 48"><path data-name="Line 68" fill="none" stroke="#707070" d="M.001 102.346l128.396-.189"/><g data-name="Group 47" transform="rotate(-90 118.76 -14.392)" fill="#fff"><circle data-name="Ellipse 1" cx="2.118" cy="2.118" transform="translate(0 11.553)" r="2.118"/><circle data-name="Ellipse 2" cx="2.118" cy="2.118" transform="translate(0 5.777)" r="2.118"/><ellipse data-name="Ellipse 3" cx="2.118" cy="2.311" rx="2.118" ry="2.311"/></g></g></svg>