<svg xmlns="http://www.w3.org/2000/svg" width="63.594" height="32.893"><g data-name="noun_Star Destroyer_994294"><g data-name="Group 11"><g data-name="Group 10"><path data-name="Path 12" d="M62.5 19.955l-11.842-.877-2.631-5.263a1.175 1.175 0 00-.877-.658h-3.731l-1.974-3.728a1.175 1.175 0 00-.877-.658h-5.482v-.219l5.921-1.974a1.206 1.206 0 00.658-1.1V3.289A3.373 3.373 0 0038.375 0a3.1 3.1 0 00-3.07 2.193h-7.017A3.3 3.3 0 0025.218 0a3.373 3.373 0 00-3.289 3.289v2.193a1.206 1.206 0 00.658 1.1l5.921 1.974v.219h-5.483c-.439 0-.877.219-.877.658l-1.974 3.728h-3.727c-.439 0-.877.219-.877.658l-2.631 5.044-11.839.873a1.036 1.036 0 00-1.1 1.1v2.193a1.119 1.119 0 00.877 1.1l30.7 8.772h.439l30.7-8.772a1.457 1.457 0 00.877-1.1v-1.977a1.036 1.036 0 00-1.093-1.097zM30.042 6.579l-5.921-1.974V3.289a1.1 1.1 0 112.193 0 1.036 1.036 0 001.1 1.1h8.772a1.036 1.036 0 001.1-1.1 1.1 1.1 0 012.193 0v1.316l-5.921 1.974a1.206 1.206 0 00-.658 1.1v1.1h-2.2v-1.1a1.206 1.206 0 00-.658-1.1zM17.1 15.35h3.728c.439 0 .877-.219.877-.658l1.974-3.728H39.91l1.974 3.728a1.175 1.175 0 00.877.658h3.728l1.754 3.509L31.8 17.543l-16.447 1.1zm44.3 6.8L31.8 30.7 2.2 22.148v-.438l29.6-2.193 29.6 2.631z" fill="#fff"/></g></g></g></svg>