<svg xmlns="http://www.w3.org/2000/svg" width="1920.751" height="1080"><g data-name="Group 1" fill="none" stroke="#707070"><path data-name="Line 6" d="M243.073 218.586l39.388-42.67"/><path data-name="Line 27" d="M361.236 218.586l39.388-42.67"/><path data-name="Line 12" d="M302.154 218.586l39.388-42.67"/><path data-name="Line 22" d="M420.317 218.586l39.388-42.67"/><path data-name="Line 35" d="M489.246 218.586l39.388-42.67"/><path data-name="Line 7" d="M252.92 218.586l39.388-42.67"/><path data-name="Line 28" d="M371.083 218.586l39.388-42.67"/><path data-name="Line 13" d="M312.001 218.586l39.388-42.67"/><path data-name="Line 23" d="M430.164 218.586l39.388-42.67"/><path data-name="Line 34" d="M499.092 218.586l39.388-42.67"/><path data-name="Line 8" d="M262.767 218.586l39.388-42.67"/><path data-name="Line 29" d="M380.93 218.586l39.388-42.67"/><path data-name="Line 14" d="M321.848 218.586l39.388-42.67"/><path data-name="Line 18" d="M440.011 218.586l39.388-42.67"/><path data-name="Line 33" d="M508.939 218.586l39.388-42.67"/><path data-name="Line 9" d="M272.614 218.586l39.388-42.67"/><path data-name="Line 24" d="M390.777 218.586l39.388-42.67"/><path data-name="Line 15" d="M331.695 218.586l39.388-42.67"/><path data-name="Line 19" d="M449.858 218.586l39.388-42.67"/><path data-name="Line 31" d="M518.786 218.586l39.388-42.67"/><path data-name="Line 10" d="M282.461 218.586l39.388-42.67"/><path data-name="Line 25" d="M400.623 218.586l39.388-42.67"/><path data-name="Line 16" d="M341.542 218.586l39.388-42.67"/><path data-name="Line 20" d="M459.705 218.586l39.388-42.67"/><path data-name="Line 32" d="M528.633 218.586l39.388-42.67"/><path data-name="Line 11" d="M292.308 218.586l39.388-42.67"/><path data-name="Line 26" d="M410.47 218.586l39.388-42.67"/><path data-name="Line 36" d="M479.399 218.586l39.388-42.67"/><path data-name="Line 17" d="M351.389 218.586l39.388-42.67"/><path data-name="Line 21" d="M469.552 218.586l39.388-42.67"/><path data-name="Line 30" d="M538.48 218.586l39.388-42.67"/></g><path data-name="Line 1" fill="none" stroke="#fff" opacity=".496" d="M1.751 79h1919"/><path data-name="Line 2" fill="none" stroke="#fff" opacity=".496" d="M.751 23h1919.5"/><path data-name="Line 3" fill="none" stroke="#707070" d="M1874.251 0l-.5 1080"/><path data-name="Line 4" fill="none" stroke="#707070" d="M1303.433 0v32"/><g data-name="Group 3" transform="translate(1299.416 35.5)" fill="#fff"><circle data-name="Ellipse 1" cx="4.5" cy="4.5" r="4.5" transform="translate(-.166)" opacity=".498"/><circle data-name="Ellipse 2" cx="4.5" cy="4.5" r="4.5" transform="translate(-.166 14)" opacity=".498"/><circle data-name="Ellipse 3" cx="4.5" cy="4.5" r="4.5" transform="translate(-.166 28)" opacity=".498"/></g><path data-name="Line 5" fill="none" stroke="#707070" d="M1096.249 54h195.501"/><g data-name="Group 6" fill="none" stroke="#707070"><path data-name="Line 35" d="M282.374 583.1l21.601-23.401"/><path data-name="Line 39" d="M185.169 583.1l21.601-23.401"/><path data-name="Line 34" d="M293.175 583.1l21.601-23.401"/><path data-name="Line 40" d="M195.969 583.1l21.601-23.401"/><path data-name="Line 33" d="M303.976 583.1l21.601-23.401"/><path data-name="Line 41" d="M206.77 583.1l21.601-23.401"/><path data-name="Line 31" d="M314.776 583.1l21.601-23.401"/><path data-name="Line 45" d="M217.571 583.1l21.601-23.401"/><path data-name="Path 1" d="M249.973 583.099l10.8-11.7 2.7-2.925 8.1-8.775"/><path data-name="Line 42" d="M152.767 583.1l21.601-23.401"/><path data-name="Line 32" d="M325.577 583.1l21.601-23.401"/><path data-name="Line 46" d="M228.371 583.1l21.601-23.401"/><path data-name="Line 36" d="M271.574 583.1l21.601-23.401"/><path data-name="Line 43" d="M174.368 583.1l21.601-23.401"/><path data-name="Line 21" d="M260.773 583.1l21.601-23.401"/><path data-name="Line 44" d="M163.568 583.1l21.601-23.401"/><path data-name="Line 30" d="M336.378 583.1l21.601-23.401"/><path data-name="Line 47" d="M239.172 583.1l21.601-23.401"/></g><text data-name="Millenium Falcon" transform="translate(1353.251 62.5)" fill="#fff" font-size="27" font-family="Aurebesh-Bold, Aurebesh" font-weight="700" letter-spacing=".45em" opacity=".501"><tspan x="0" y="0">Millenium Falcon</tspan></text><g data-name="Group 41"><g data-name="Group 38" fill="none" stroke="#707070"><path data-name="Line 6" d="M63.81 1022.501l-32.675-30.162"/><path data-name="Line 27" d="M63.81 932.016l-32.675-30.162"/><path data-name="Line 12" d="M63.81 977.259l-32.675-30.162"/><path data-name="Line 22" d="M63.81 886.774l-32.675-30.162"/><path data-name="Line 35" d="M63.81 833.991l-32.675-30.162"/><path data-name="Line 7" d="M63.81 1014.961l-32.675-30.162"/><path data-name="Line 28" d="M63.81 924.476l-32.675-30.162"/><path data-name="Line 13" d="M63.81 969.718l-32.675-30.162"/><path data-name="Line 23" d="M63.81 879.233l-32.675-30.162"/><path data-name="Line 34" d="M63.81 826.45l-32.675-30.162"/><path data-name="Line 8" d="M63.81 1007.42l-32.675-30.162"/><path data-name="Line 29" d="M63.81 916.935l-32.675-30.162"/><path data-name="Line 14" d="M63.81 962.178l-32.675-30.162"/><path data-name="Line 18" d="M63.81 871.693l-32.675-30.162"/><path data-name="Line 33" d="M63.81 818.91l-32.675-30.162"/><path data-name="Line 9" d="M63.81 999.88l-32.675-30.162"/><path data-name="Line 24" d="M63.81 909.395l-32.675-30.162"/><path data-name="Line 15" d="M63.81 954.637l-32.675-30.162"/><path data-name="Line 19" d="M63.81 864.153l-32.675-30.162"/><path data-name="Line 31" d="M63.81 811.37l-32.675-30.162"/><path data-name="Line 10" d="M63.81 992.339l-32.675-30.162"/><path data-name="Line 25" d="M63.81 901.855l-32.675-30.162"/><path data-name="Line 16" d="M63.81 947.097l-32.675-30.162"/><path data-name="Line 20" d="M63.81 856.612L31.135 826.45"/><path data-name="Line 32" d="M63.81 803.829l-32.675-30.162"/><path data-name="Line 11" d="M63.81 984.799l-32.675-30.162"/><path data-name="Line 26" d="M63.81 894.314l-32.675-30.162"/><path data-name="Line 36" d="M63.81 841.531l-32.675-30.162"/><path data-name="Line 17" d="M63.81 939.557l-32.675-30.162"/><path data-name="Line 21" d="M63.81 849.072L31.135 818.91"/><path data-name="Line 30" d="M63.81 796.289l-32.675-30.162"/></g><path data-name="Line 65" fill="none" stroke="#707070" d="M32.706 745.233V487.916"/><g data-name="Group 40" transform="rotate(180 19.497 238.427)" fill="#fff"><circle data-name="Ellipse 1" cx="3.5" cy="3.5" r="3.5" transform="rotate(180 3.65 15.868)"/><circle data-name="Ellipse 2" cx="3.5" cy="3.5" r="3.5" transform="rotate(180 3.65 9.368)"/><ellipse data-name="Ellipse 3" cx="3.5" cy="4" rx="3.5" ry="4" transform="rotate(180 3.65 3.869)"/></g></g><path data-name="Line 67" fill="none" stroke="#707070" d="M1920.751 192l-333.402-.491"/><g data-name="Group 44" transform="rotate(-90 865.628 -668.289)" fill="#fff"><circle data-name="Ellipse 1" cx="5.5" cy="5.5" r="5.5" transform="translate(.089 .083)" opacity=".498"/><circle data-name="Ellipse 2" cx="5.5" cy="5.5" r="5.5" transform="translate(.089 15.083)" opacity=".498"/><ellipse data-name="Ellipse 3" cx="5.5" cy="6" rx="5.5" ry="6" transform="translate(.089 29.083)" opacity=".498"/></g><g data-name="Group 48"><path data-name="Line 68" fill="none" stroke="#707070" d="M.001 203l333.402-.491"/><g data-name="Group 47" transform="rotate(-90 277 -68.75)" fill="#fff"><circle data-name="Ellipse 1" cx="5.5" cy="5.5" transform="translate(0 30)" r="5.5"/><circle data-name="Ellipse 2" cx="5.5" cy="5.5" transform="translate(0 15)" r="5.5"/><ellipse data-name="Ellipse 3" cx="5.5" cy="6" rx="5.5" ry="6"/></g></g><text data-name="YT-1300 light freighter" transform="translate(31.251 56.5)" fill="#fff" font-size="20" font-family="Aurebesh-Bold, Aurebesh" font-weight="700" letter-spacing=".15em" opacity=".497"><tspan x="0" y="0">YT-1300 light freighter</tspan></text><text data-name="Corellian Engineering Corporation" transform="translate(479.251 56.5)" fill="#fff" font-size="20" font-family="Aurebesh-Bold, Aurebesh" font-weight="700" letter-spacing=".15em" opacity=".505"><tspan x="0" y="0">Corellian Engineering Corporation</tspan></text><g data-name="Group 43" fill="none" stroke="#707070"><path data-name="Line 6" d="M1707.467 259.523l71.396 65.904"/><path data-name="Line 27" d="M1707.467 457.235l71.396 65.904"/><path data-name="Line 12" d="M1707.467 358.379l71.396 65.904"/><path data-name="Line 22" d="M1707.467 556.091l71.396 65.904"/><path data-name="Line 35" d="M1707.467 671.422l71.396 65.904"/><path data-name="Line 7" d="M1707.467 275.999l71.396 65.904"/><path data-name="Line 28" d="M1707.467 473.711l71.396 65.904"/><path data-name="Line 13" d="M1707.467 374.855l71.396 65.904"/><path data-name="Line 23" d="M1707.467 572.566l71.396 65.904"/><path data-name="Line 34" d="M1707.467 687.898l71.396 65.904"/><path data-name="Line 8" d="M1707.467 292.475l71.396 65.904"/><path data-name="Line 29" d="M1707.467 490.187l71.396 65.904"/><path data-name="Line 14" d="M1707.467 391.331l71.396 65.904"/><path data-name="Line 18" d="M1707.467 589.042l71.396 65.904"/><path data-name="Line 33" d="M1707.467 704.374l71.396 65.904"/><path data-name="Line 9" d="M1707.467 308.951l71.396 65.904"/><path data-name="Line 24" d="M1707.467 506.663l71.396 65.904"/><path data-name="Line 15" d="M1707.467 407.807l71.396 65.904"/><path data-name="Line 19" d="M1707.467 605.518l71.396 65.904"/><path data-name="Line 31" d="M1707.467 720.85l71.396 65.904"/><path data-name="Line 10" d="M1707.467 325.427l71.396 65.904"/><path data-name="Line 25" d="M1707.467 523.139l71.396 65.904"/><path data-name="Line 16" d="M1707.467 424.283l71.396 65.904"/><path data-name="Line 20" d="M1707.467 621.994l71.396 65.904"/><path data-name="Line 32" d="M1707.467 737.326l71.396 65.904"/><path data-name="Line 11" d="M1707.467 341.903l71.396 65.904"/><path data-name="Line 26" d="M1707.467 539.615l71.396 65.904"/><path data-name="Line 36" d="M1707.467 654.946l71.396 65.904"/><path data-name="Line 17" d="M1707.467 440.759l71.396 65.904"/><path data-name="Line 21" d="M1707.467 638.47l71.396 65.904"/><path data-name="Line 30" d="M1707.467 753.802l71.396 65.904"/></g><g data-name="Group 2" fill="none" stroke="#707070"><path data-name="Line 6" d="M1471.136 539.115l17.269 15.941"/><path data-name="Line 27" d="M1471.136 586.938l17.269 15.941"/><path data-name="Line 12" d="M1471.136 563.026l17.269 15.941"/><path data-name="Line 22" d="M1471.136 610.849l17.269 15.941"/><path data-name="Line 35" d="M1471.136 638.746l17.269 15.941"/><path data-name="Line 7" d="M1471.136 543.1l17.269 15.941"/><path data-name="Line 28" d="M1471.136 590.923l17.269 15.941"/><path data-name="Line 13" d="M1471.136 567.012l17.269 15.941"/><path data-name="Line 23" d="M1471.136 614.835l17.269 15.941"/><path data-name="Line 34" d="M1471.136 642.731l17.269 15.941"/><path data-name="Line 8" d="M1471.136 547.085l17.269 15.941"/><path data-name="Line 29" d="M1471.136 594.908l17.269 15.941"/><path data-name="Line 14" d="M1471.136 570.997l17.269 15.941"/><path data-name="Line 18" d="M1471.136 618.82l17.269 15.941"/><path data-name="Line 33" d="M1471.136 646.717l17.269 15.941"/><path data-name="Line 9" d="M1471.136 551.071l17.269 15.941"/><path data-name="Line 24" d="M1471.136 598.894l17.269 15.941"/><path data-name="Line 15" d="M1471.136 574.982l17.269 15.941"/><path data-name="Line 19" d="M1471.136 622.805l17.269 15.941"/><path data-name="Line 31" d="M1471.136 650.702l17.269 15.941"/><path data-name="Line 10" d="M1471.136 555.056l17.269 15.941"/><path data-name="Line 25" d="M1471.136 602.879l17.269 15.941"/><path data-name="Line 16" d="M1471.136 578.967l17.269 15.941"/><path data-name="Line 20" d="M1471.136 626.79l17.269 15.941"/><path data-name="Line 32" d="M1471.136 654.687l17.269 15.941"/><path data-name="Line 11" d="M1471.136 559.041l17.269 15.941"/><path data-name="Line 26" d="M1471.136 606.864l17.269 15.941"/><path data-name="Line 36" d="M1471.136 634.761l17.269 15.941"/><path data-name="Line 17" d="M1471.136 582.953l17.269 15.941"/><path data-name="Line 21" d="M1471.136 630.776l17.269 15.941"/><path data-name="Line 30" d="M1471.136 658.672l17.269 15.941"/></g><path data-name="Line 37" fill="none" stroke="#707070" d="M1498.368 674.864h209.392"/><path data-name="Line 38" fill="none" stroke="#707070" d="M1487.575 685.656v135.997"/><g data-name="Group 9" transform="translate(1715.315 673.784)" fill="#fff"><ellipse data-name="Ellipse 1" cx="2.5" cy="2" rx="2.5" ry="2" transform="rotate(90 8.61 8.326)"/><ellipse data-name="Ellipse 2" cx="2.5" cy="2" rx="2.5" ry="2" transform="rotate(90 5.61 5.326)"/><ellipse data-name="Ellipse 3" cx="2.5" cy="2" rx="2.5" ry="2" transform="rotate(90 2.11 1.826)"/></g><g data-name="Group 8" transform="translate(1484.337 827.05)" fill="#fff"><circle data-name="Ellipse 1" cx="2" cy="2" r="2" transform="rotate(180 1.957 8.725)"/><circle data-name="Ellipse 2" cx="2" cy="2" r="2" transform="rotate(180 1.957 5.225)"/><circle data-name="Ellipse 3" cx="2" cy="2" r="2" transform="rotate(180 1.957 2.225)"/></g><path data-name="Line 48" fill="none" stroke="#707070" d="M1896.751 126v530"/><g data-name="Group 7" transform="rotate(180 950.017 346.816)" fill="#fff"><circle data-name="Ellipse 1" cx="3.5" cy="3.5" r="3.5" transform="translate(-.217 .132)" opacity=".498"/><circle data-name="Ellipse 2" cx="3.5" cy="3.5" r="3.5" transform="translate(-.217 10.132)" opacity=".498"/><circle data-name="Ellipse 3" cx="3.5" cy="3.5" r="3.5" transform="translate(-.217 20.132)" opacity=".498"/></g></svg>