<svg xmlns="http://www.w3.org/2000/svg" width="44.373" height="59.804"><g data-name="noun_Millenium Falcon_1153370" transform="translate(-4.72 -.83)" fill="#fff"><path data-name="Path 2" d="M24.056 36.878a2.466 2.466 0 102.466-2.466 2.466 2.466 0 00-2.466 2.466zm2.96 0c0 .552-.987.552-.987 0a.493.493 0 01.987 0z"/><path data-name="Path 3" d="M26.523 47.592a2.131 2.131 0 102.131 2.131 2.131 2.131 0 00-2.131-2.131zm-.158 2.131a.168.168 0 01.335 0c-.02.2-.335.2-.335.02z"/><path data-name="Path 4" d="M21.747 46.882a2.131 2.131 0 102.132 2.13 2.131 2.131 0 00-2.132-2.13zm-.157 2.13a.168.168 0 01.335 0c-.019.179-.335.179-.335 0z"/><path data-name="Path 5" d="M29.147 49.012a2.131 2.131 0 102.131-2.131 2.131 2.131 0 00-2.131 2.131zm1.973 0a.168.168 0 11.335 0c.001.179-.335.179-.335 0z"/><path data-name="Path 6" d="M26.523 52.308a2.131 2.131 0 102.131 2.131 2.131 2.131 0 00-2.131-2.131zm-.158 2.131a.168.168 0 01.335 0c-.019.178-.335.178-.335 0z"/><path data-name="Path 7" d="M20.76 51.598a2.131 2.131 0 102.131 2.131 2.131 2.131 0 00-2.131-2.131zm-.158 2.131a.168.168 0 11.335 0c.002.178-.334.178-.334 0z"/><path data-name="Path 8" d="M30.133 53.729a2.131 2.131 0 102.131-2.131 2.131 2.131 0 00-2.131 2.131zm1.973 0a.168.168 0 01.335 0c.001.178-.335.178-.335 0z"/><path data-name="Path 9" d="M48.128 17.956a.987.987 0 00-.908-.612H45.5a.987.987 0 00-.927.651l-.806 2.305a1.006 1.006 0 000 .335v1.578l-8.9-20.777a.987.987 0 00-.906-.606h-5.15a.987.987 0 00-.987.987v7.5H25.2v-7.5a.987.987 0 00-.986-.987h-5.13a.987.987 0 00-.908.612l-12.45 29.32a.947.947 0 000 .2 1.026 1.026 0 000 .178.967.967 0 000 .257.947.947 0 000 .138.987.987 0 00.178.276.947.947 0 00.217.158l3.532 1.559H5.707a.987.987 0 00-.987.987v4.6a.987.987 0 00.987.987h4.341l-3.789 1.551a.987.987 0 00-.572 1.184 21.7 21.7 0 005.8 9.629l-.75.868a.987.987 0 000 1.381A26.222 26.222 0 0026.4 60.634a25.117 25.117 0 0015.232-5.6.987.987 0 00.118-1.361l-.71-.908a21.586 21.586 0 006.22-9.865.987.987 0 00-.533-1.164l-3.394-1.559h3.788a.987.987 0 00.987-.987v-4.6a.987.987 0 00-.987-.987h-3.965l3.552-1.559a.987.987 0 00.513-1.283c-.217-.533-.474-1.026-.71-1.539l1.973-.829a.987.987 0 00.592-.908V20.62a.987.987 0 000-.375zM46.155 19.3h.355l.592 1.5v.71h-1.48v-.73zM28.811 32.735a4.716 4.716 0 11-2.328-.631 4.716 4.716 0 012.328.631zm12.805 2.8v2.624h-8.5a6.551 6.551 0 000-2.624zm-9.865 5.5a6.709 6.709 0 00.612-.908h5.308a11.661 11.661 0 01-2.8 4.834zM18.058 44.79a11.5 11.5 0 01-2.664-4.656H20.7a6.689 6.689 0 00.592.888zM7.936 30.6c3.1-7.064 7.892-11.464 14.029-12.884l-.612 6.57a13.674 13.674 0 00-7.892 8.761l-5.545-2.423zM24.55 11.287h3.95L30.035 27.7h-7zm7.162 13L31.1 17.68a17.048 17.048 0 016.255 2.782l-4.124 4.578a13.5 13.5 0 00-1.539-.75zm-14.7 5.919l3.769 3.236v.158h-5.327a11.621 11.621 0 011.539-3.413zm2.92 5.387a6.551 6.551 0 000 2.624h-8.523v-2.641zm6.61-5.426a6.689 6.689 0 00-4.5 1.756l-3.747-3.213a11.641 11.641 0 012.762-2.151l-.2 1.973a.987.987 0 00.987 1.085h9.195l-2.089.983a6.669 6.669 0 00-2.427-.454zm5.327-.789a.987.987 0 00.257-.75l-.2-1.973a11.7 11.7 0 012.506 1.776l-2.624 1.085zm4.518-1.855a13.616 13.616 0 00-1.5-1.342l3.946-4.439a21.7 21.7 0 013.1 3.473zM33.33 2.8l7.735 18.291a19.415 19.415 0 00-10.142-5.465L30.41 10.2a.987.987 0 00-.572-.789V2.8zm-13.63 0h3.532v6.61a.987.987 0 00-.572.789l-.513 5.446a19.731 19.731 0 00-10.2 5.465zM6.811 35.576h2.625V38.2H6.811zm1.046 7.636L13.5 40.9a13.535 13.535 0 003.256 5.446l-3.946 4.62a19.731 19.731 0 01-4.952-7.774zM26.5 58.721a24.17 24.17 0 01-13.595-4.893l9.865-11.4a6.689 6.689 0 007.6 0l9.392 11.74A23.282 23.282 0 0126.5 58.721zm13.4-7.439l-3.808-4.735a13.693 13.693 0 003.532-5.919l5.564 2.585a19.731 19.731 0 01-5.288 8.069zm6.314-13.1H43.59v-2.6h2.624zM45.089 30.6l-6.57 2.8a.967.967 0 00-.256.178h-1.756l8.228-3.591zm-12.884 2.727a6.728 6.728 0 00-1.243-1.46l14.088-5.92a.987.987 0 00.612-.908V23.4h1.48v3.413z"/><circle data-name="Ellipse 9" cx="1.144" cy="1.144" r="1.144" transform="translate(19.577 6.532)"/><path data-name="Path 10" d="M19.084 14.975a2.131 2.131 0 10-2.131-2.129 2.131 2.131 0 002.131 2.129zm0-2.309a.158.158 0 01.158.158c0 .178-.335.178-.335 0a.158.158 0 01.178-.158z"/><circle data-name="Ellipse 10" cx="1.144" cy="1.144" r="1.144" transform="translate(31.1 6.532)"/><path data-name="Path 11" d="M31.771 12.846a2.131 2.131 0 102.131-2.131 2.131 2.131 0 00-2.131 2.131zm2.131-.158a.158.158 0 01.158.158c0 .178-.335.178-.335 0a.158.158 0 01.178-.178z"/></g></svg>