<svg xmlns="http://www.w3.org/2000/svg" width="633.464" height="947"><text data-name="Millenium Falcon" transform="rotate(90 7 9)" fill="#fff" font-size="80" font-family="Aurebesh-Bold, Aurebesh" font-weight="700"><tspan x="0" y="0">Millenium Falcon</tspan></text><g data-name="Group 1" fill="none" stroke="#707070"><path data-name="Line 6" d="M166.822 680.086l54.856-59.427"/><path data-name="Line 27" d="M331.389 680.086l54.856-59.427"/><path data-name="Line 12" d="M249.106 680.086l54.856-59.427"/><path data-name="Line 22" d="M413.673 680.086l54.856-59.427"/><path data-name="Line 35" d="M509.671 680.086l54.856-59.427"/><path data-name="Line 7" d="M180.536 680.086l54.856-59.427"/><path data-name="Line 28" d="M345.103 680.086l54.856-59.427"/><path data-name="Line 13" d="M262.82 680.086l54.856-59.427"/><path data-name="Line 23" d="M427.387 680.086l54.856-59.427"/><path data-name="Line 34" d="M523.385 680.086l54.856-59.427"/><path data-name="Line 8" d="M194.25 680.086l54.856-59.427"/><path data-name="Line 29" d="M358.817 680.086l54.856-59.427"/><path data-name="Line 14" d="M276.534 680.086l54.856-59.427"/><path data-name="Line 18" d="M441.101 680.086l54.856-59.427"/><path data-name="Line 33" d="M537.099 680.086l54.856-59.427"/><path data-name="Line 9" d="M207.964 680.086l54.856-59.427"/><path data-name="Line 24" d="M372.531 680.086l54.856-59.427"/><path data-name="Line 15" d="M290.248 680.086l54.856-59.427"/><path data-name="Line 19" d="M454.815 680.086l54.856-59.427"/><path data-name="Line 31" d="M550.813 680.086l54.856-59.427"/><path data-name="Line 10" d="M221.678 680.086l54.856-59.427"/><path data-name="Line 25" d="M386.245 680.086l54.856-59.427"/><path data-name="Line 16" d="M303.961 680.086l54.856-59.427"/><path data-name="Line 20" d="M468.529 680.086l54.856-59.427"/><path data-name="Line 32" d="M564.527 680.086l54.856-59.427"/><path data-name="Line 11" d="M235.392 680.086l54.856-59.427"/><path data-name="Line 26" d="M399.959 680.086l54.856-59.427"/><path data-name="Line 36" d="M495.957 680.086l54.856-59.427"/><path data-name="Line 17" d="M317.675 680.086l54.856-59.427"/><path data-name="Line 21" d="M482.243 680.086l54.856-59.427"/><path data-name="Line 30" d="M578.24 680.086l54.856-59.427"/></g><text data-name="YT-1300 light freighter" transform="rotate(-90 422.5 271)" fill="#fff" font-size="40" font-family="Aurebesh-Bold, Aurebesh" font-weight="700" opacity=".497"><tspan x="0" y="0">YT-1300 light freighter</tspan></text><text data-name="Corellian Engineering Corporation" transform="rotate(-90 493 270)" fill="#fff" font-size="30" font-family="Aurebesh-Bold, Aurebesh" font-weight="700" opacity=".505"><tspan x="0" y="0">Corellian Engineering Corporation</tspan></text></svg>