<svg xmlns="http://www.w3.org/2000/svg" width="193" height="179.001"><g data-name="Group 46"><g data-name="Subtraction 20"><path d="M192.5 178.5H.5V96.572c0-6.518.657-13.032 1.95-19.363a95.64 95.64 0 015.594-18.033 96.145 96.145 0 018.852-16.32 96.707 96.707 0 0111.722-14.218 96.688 96.688 0 0114.208-11.732A96.022 96.022 0 0159.133 8.05a95.537 95.537 0 0118.02-5.598A96.67 96.67 0 0196.501.5c6.513 0 13.022.656 19.347 1.951a95.506 95.506 0 0118.02 5.598 96.005 96.005 0 0116.306 8.857 96.688 96.688 0 0114.208 11.732 96.707 96.707 0 0111.723 14.219 96.132 96.132 0 018.852 16.319 95.668 95.668 0 015.593 18.033 96.861 96.861 0 011.95 19.363V178.5zM97 31.5c-6.547 0-12.898 1.282-18.878 3.811a48.336 48.336 0 00-15.416 10.394 48.332 48.332 0 00-10.394 15.417C49.782 67.1 48.5 73.452 48.5 80s1.282 12.9 3.812 18.879a48.337 48.337 0 0010.394 15.416 48.34 48.34 0 0015.416 10.393c5.98 2.53 12.331 3.812 18.879 3.812 6.547 0 12.898-1.283 18.877-3.812a48.336 48.336 0 0015.416-10.393 48.336 48.336 0 0010.394-15.416c2.53-5.98 3.812-12.331 3.812-18.879 0-6.547-1.283-12.9-3.812-18.878a48.333 48.333 0 00-10.394-15.417 48.342 48.342 0 00-15.416-10.394c-5.979-2.53-12.33-3.811-18.877-3.811z"/><path d="M192 178V96.572a96.35 96.35 0 00-1.94-19.262 95.154 95.154 0 00-5.564-17.94 95.6 95.6 0 00-8.805-16.233 96.192 96.192 0 00-11.662-14.145 96.195 96.195 0 00-14.135-11.671 95.487 95.487 0 00-16.221-8.812 94.965 94.965 0 00-17.925-5.568A96.167 96.167 0 0096.501 1c-6.48 0-12.955.653-19.248 1.94a94.996 94.996 0 00-17.925 5.57 95.504 95.504 0 00-16.222 8.81 96.195 96.195 0 00-14.134 11.672A96.192 96.192 0 0017.31 43.137 95.632 95.632 0 008.505 59.37 95.154 95.154 0 002.94 77.31 96.378 96.378 0 001 96.572V178h191M97 31c6.614 0 13.031 1.295 19.072 3.85a48.839 48.839 0 0115.575 10.502c4.5 4.5 8.032 9.74 10.5 15.575C144.704 66.967 146 73.385 146 80s-1.296 13.033-3.851 19.074a48.835 48.835 0 01-10.501 15.574 48.833 48.833 0 01-15.575 10.5c-6.041 2.556-12.458 3.852-19.072 3.852-6.615 0-13.032-1.296-19.074-3.852a48.838 48.838 0 01-15.575-10.5c-4.5-4.5-8.033-9.74-10.5-15.574C49.295 93.033 48 86.615 48 80c0-6.615 1.296-13.032 3.851-19.073a48.827 48.827 0 0110.501-15.575c4.5-4.5 9.74-8.033 15.575-10.501C83.97 32.295 90.386 31 97.001 31m96 148H0V96.572c0-6.552.66-13.1 1.96-19.463 1.268-6.2 3.16-12.3 5.623-18.128a96.643 96.643 0 018.897-16.404 97.204 97.204 0 0111.784-14.292 97.209 97.209 0 0114.281-11.793 96.52 96.52 0 0116.392-8.904 96.018 96.018 0 0118.115-5.627A97.16 97.16 0 0196.5 0c6.547 0 13.09.66 19.448 1.961a95.985 95.985 0 0118.114 5.627 96.497 96.497 0 0116.391 8.904 97.209 97.209 0 0114.282 11.793 97.204 97.204 0 0111.784 14.292 96.607 96.607 0 018.897 16.404 96.158 96.158 0 015.623 18.128A97.351 97.351 0 01193 96.572V179zM97 32c-6.48 0-12.767 1.269-18.684 3.771A47.844 47.844 0 0063.059 46.06a47.836 47.836 0 00-10.287 15.257C50.27 67.234 49 73.52 49 80s1.269 12.767 3.772 18.684a47.842 47.842 0 0010.287 15.257 47.846 47.846 0 0015.258 10.287C84.234 126.73 90.52 128 97 128s12.765-1.27 18.683-3.772a47.842 47.842 0 0015.257-10.287 47.84 47.84 0 0010.287-15.257C143.73 92.767 145 86.48 145 80s-1.27-12.766-3.772-18.684A47.84 47.84 0 00130.94 46.06a47.844 47.844 0 00-15.257-10.288C109.766 33.27 103.48 32 97 32z" fill="#fff"/></g></g></svg>