<svg xmlns="http://www.w3.org/2000/svg" width="193" height="285">
  <g data-name="Group 55" transform="translate(-864 -902)">
    <g data-name="Group 54" fill="none">
      <g data-name="Union 1">
        <path d="M864 1187V998.572a96.5 96.5 0 11193 0V1187z"/>
        <path d="M1056 1186V998.572a96.35 96.35 0 00-1.94-19.263 95.134 95.134 0 00-5.565-17.938 95.6 95.6 0 00-8.804-16.234 96.248 96.248 0 00-11.662-14.145 96.207 96.207 0 00-14.135-11.67 95.485 95.485 0 00-16.221-8.812 94.959 94.959 0 00-17.925-5.568A96.137 96.137 0 00960.501 903c-6.48 0-12.956.653-19.248 1.942a94.963 94.963 0 00-17.925 5.568 95.486 95.486 0 00-16.222 8.811 96.207 96.207 0 00-14.134 11.67 96.247 96.247 0 00-11.662 14.146 95.598 95.598 0 00-8.805 16.234 95.134 95.134 0 00-5.565 17.938 96.35 96.35 0 00-1.94 19.263V1186h191m1 1H864V998.572C864 945.236 907.205 902 960.501 902c53.294 0 96.499 43.236 96.499 96.572V1187z" fill="#fff"/>
      </g>
      <g data-name="Ellipse 7" transform="translate(913 934)" stroke="#fff">
        <circle cx="48" cy="48" r="48" stroke="none"/>
        <circle cx="48" cy="48" r="47.5"/>
      </g>
    </g>
    <circle data-name="Ellipse 8" cx="38" cy="38" r="38" transform="translate(923 944)" fill="#fff"/>
  </g>
</svg>
