<svg data-name="Group 34" xmlns="http://www.w3.org/2000/svg" width="594.588" height="594.586"><g data-name="Subtraction 1" fill="none" opacity=".507"><path d="M312.069 536.758V348.526a50.966 50.966 0 0038.1-38.1h189.8a238.558 238.558 0 01-227.9 226.331zm-22.984-.078A238.558 238.558 0 0162.83 310.426h188.154a50.973 50.973 0 0038.1 38.1zm250.958-249.239H350.169a50.965 50.965 0 00-38.1-38.1V59.468a238.891 238.891 0 01227.974 227.973zm-289.059 0H62.752A238.561 238.561 0 01289.085 59.546v189.8a50.97 50.97 0 00-38.1 38.1z"/><path d="M313.069 535.71a238.562 238.562 0 0043.589-6.17 236.756 236.756 0 0041.581-14.087 238.103 238.103 0 0037.734-21.16 239.72 239.72 0 0033.087-27.433 239.703 239.703 0 0027.642-32.907 238.154 238.154 0 0021.397-37.582 236.76 236.76 0 0014.354-41.458 238.391 238.391 0 006.458-43.487H350.958a51.777 51.777 0 01-13.686 24.204c-6.706 6.706-15.06 11.427-24.203 13.686V535.71m-24.984-.086V349.316c-9.144-2.26-17.498-6.981-24.203-13.687-6.706-6.706-11.427-15.06-13.687-24.203H63.884a238.398 238.398 0 006.41 43.294 236.788 236.788 0 0014.242 41.296 238.167 238.167 0 0021.229 37.462 239.683 239.683 0 0027.428 32.84 239.676 239.676 0 0032.84 27.428 238.156 238.156 0 0037.461 21.228 236.755 236.755 0 0041.297 14.24 238.265 238.265 0 0043.294 6.41m250.91-249.183c-2.854-59.062-27.472-114.617-69.39-156.535-41.918-41.918-97.474-66.536-156.536-69.39v188.037a51.768 51.768 0 0124.203 13.685 51.773 51.773 0 0113.686 24.203h188.038m-288.8 0c2.259-9.144 6.98-17.497 13.686-24.202a51.778 51.778 0 0124.203-13.686V60.6c-14.675.81-29.3 2.982-43.487 6.458a236.74 236.74 0 00-41.458 14.354 238.188 238.188 0 00-37.582 21.397 239.702 239.702 0 00-32.908 27.641 239.674 239.674 0 00-27.433 33.087 238.049 238.049 0 00-21.16 37.734 236.715 236.715 0 00-14.088 41.581 238.521 238.521 0 00-6.17 43.589h186.396m61.875 250.317h-.001V348.526c9.263-2.137 17.733-6.84 24.496-13.603 6.762-6.762 11.466-15.233 13.604-24.497h189.796a239.41 239.41 0 01-6.54 44.725 237.77 237.77 0 01-14.415 41.633 239.158 239.158 0 01-21.488 37.74 240.707 240.707 0 01-27.757 33.046 240.722 240.722 0 01-33.226 27.547 239.107 239.107 0 01-37.892 21.249 237.76 237.76 0 01-41.758 14.147 239.605 239.605 0 01-44.819 6.245zm-22.985-.078h-.004v-.002a239.311 239.311 0 01-44.527-6.492 237.758 237.758 0 01-41.472-14.3 239.158 239.158 0 01-37.619-21.319 240.678 240.678 0 01-32.977-27.543 240.686 240.686 0 01-27.543-32.976 239.168 239.168 0 01-21.319-37.62 237.788 237.788 0 01-14.3-41.47 239.412 239.412 0 01-6.494-44.532h188.155c2.137 9.263 6.841 17.734 13.604 24.496 6.762 6.762 15.232 11.466 24.496 13.604V536.68zm250.958-249.24H350.169c-2.138-9.263-6.841-17.733-13.604-24.495-6.762-6.762-15.232-11.465-24.496-13.603V59.468c59.703 2.624 115.9 27.389 158.243 69.73 42.342 42.343 67.107 98.541 69.731 158.243zm-289.058 0H62.752a239.538 239.538 0 016.245-44.82c3.399-14.289 8.159-28.338 14.147-41.757a239.053 239.053 0 0121.249-37.892 240.68 240.68 0 0127.547-33.226 240.702 240.702 0 0133.046-27.757 239.199 239.199 0 0137.74-21.487 237.748 237.748 0 0141.634-14.415 239.45 239.45 0 0144.725-6.54v189.796c-9.264 2.138-17.734 6.842-24.496 13.604-6.762 6.761-11.466 15.231-13.604 24.494z" fill="#fff"/></g><path data-name="Subtraction 6" d="M308.744 589.596l-5.1.087.008-16.428-.213.004-.215.003c1.693-.038 3.455-.092 5.24-.164l.28 16.493zm-9.272.158l-3.866.066-.001-.075h3.868zm-16.231-.264h-.006l-5.087-.358 1.438-16.352c1.575.1 3.192.188 4.806.26l-1.158 16.447zm37.85-.644l-.007-.067 3.95-.343-3.94.412zm7.988-.836l-1.421-16.342c-2.753.303-5.54.566-8.29.784a284.83 284.83 0 0013.067-1.358l1.713 16.388-5.071.53zm-55.109.828l-3.842-.27.005-.07 3.837.335zm72.423-3.182l-.012-.067 3.944-.694-3.929.762zm-88.558 1.506l-5.034-.8 2.853-16.135c1.558.236 3.161.464 4.766.68l-2.582 16.254zm96.445-3.04l-2.836-16.128a261.942 261.942 0 01-8.185 1.505 283.637 283.637 0 0012.899-2.492l3.131 16.146-5.006.97zm-105.65 1.573l-3.77-.6.011-.069 3.76.666zm122.695-5.423l-.018-.067 3.877-1.037-3.855 1.104zm-138.588 2.356l-4.947-1.235 4.242-15.803c1.528.374 3.104.739 4.69 1.094l-3.982 15.944zm146.31-4.568l-4.225-15.8a273.719 273.719 0 01-8.022 2.215 282.488 282.488 0 0012.63-3.61l4.52 15.793-4.9 1.403zm-155.34 2.312l-3.717-.928.017-.069 3.7.994zm171.986-7.633l-.024-.065 3.786-1.376-3.76 1.44zm-187.56 3.188l-4.82-1.661 5.599-15.365c1.509.51 3.053 1.014 4.576 1.5l-5.353 15.525zm195.061-6.064l-5.586-15.37c1.458-.57 2.962-1.17 4.471-1.792l5.878 15.339-4.761 1.824zm-203.834 3.04l-3.648-1.257.023-.067 3.624 1.32zm-15.157-5.798l-4.657-2.076 6.921-14.822a298.233 298.233 0 004.424 1.895l-6.688 15.003zm235.105-3.996l-.03-.063 3.639-1.695-3.607 1.762zm7.222-3.518l-6.908-14.834c1.41-.7 2.857-1.431 4.296-2.174l7.199 14.782-4.585 2.234zm-250.828 3.727l-3.498-1.56.028-.065 3.472 1.62zm266.29-11.861l-.035-.06 3.504-2.02-3.466 2.08zm-280.86 4.774l-4.459-2.475 8.194-14.178a265.921 265.921 0 01-7.236-4.108 281.536 281.536 0 0011.482 6.38l-7.979 14.38zm287.75-8.91l-8.184-14.193a275.885 275.885 0 004.088-2.544l8.472 14.113-4.374 2.624zm-295.9 4.388l-3.333-1.851.034-.062 3.302 1.91zm-13.88-8.325v-.005l-4.226-2.852 9.411-13.429a274.997 274.997 0 01-6.85-4.724 283.034 283.034 0 0010.881 7.357l-9.216 13.649zm324.482-5.516l-.04-.056 3.255-2.276-3.213 2.332zm6.504-4.72l-9.404-13.444c1.28-.943 2.574-1.914 3.852-2.89l9.682 13.339-4.128 2.995zm-338.68 5.041l-3.193-2.154.04-.059 3.154 2.211zm352.495-15.737l-.044-.052 3.085-2.586-3.038 2.638zm-365.63 6.216l-3.962-3.21 10.56-12.572a256.454 256.454 0 01-2.466-1.999 289.675 289.675 0 006.25 4.974l-10.384 12.807zm371.698-11.485l-10.557-12.587a269.841 269.841 0 003.586-3.214l10.815 12.455-3.844 3.343zm-378.935 5.62l-2.967-2.404.044-.055 2.925 2.456zm391.767-17.478l-.049-.047 2.853-2.85-2.803 2.9zm-404 6.868l-3.661-3.539 11.62-11.61a312.87 312.87 0 003.513 3.292zm409.582-12.645l-11.61-11.62c1.106-1.16 2.211-2.338 3.293-3.512l11.864 11.466-3.539 3.661zM92.11 505.725l-2.746-2.66.048-.05 2.706 2.709zm404.162-17.279l.492-.509c-.163.162-.328.338-.492.509zm-415.43 5.636l-3.343-3.85 12.585-10.552c1.04 1.182 2.12 2.387 3.213 3.586l-12.452 10.815zm439.289-7.468l-.053-.043 2.58-3.072-2.525 3.115zm5.06-6.243l-12.572-10.558c-.614.768-1.24 1.54-1.861 2.293 1.633-2 3.26-4.044 4.832-6.084l12.81 10.385-3.21 3.961zM74.711 487.03l-2.484-2.859.052-.045 2.435 2.904zm-10.187-12.548l-2.995-4.126 13.444-9.403a325.597 325.597 0 002.89 3.852l-13.339 9.68zm471.242-8.012l-.057-.039 2.3-3.28-2.245 3.32zm4.496-6.659l-13.429-9.418a290.374 290.374 0 01-4.724 6.852 279.01 279.01 0 007.358-10.883l13.65 9.216-2.854 4.226zM59.08 466.973l-2.27-3.128.057-.042 2.216 3.163zm-9.096-13.45l-2.623-4.371 14.192-8.186a285.34 285.34 0 002.544 4.09l-14.111 8.469zm499.6-8.493l-.06-.034 2.047-3.543-1.985 3.576zm3.897-7.025l-14.178-8.194a285.39 285.39 0 01-4.107 7.238 284.105 284.105 0 006.38-11.483l14.381 7.98-2.474 4.46zm-508.287 7.54l-1.973-3.287.06-.036 1.916 3.323zm516.29-23.08l-.063-.028 1.712-3.668-1.646 3.696zm-524.164 8.91l-2.23-4.58 14.833-6.908a313.69 313.69 0 002.174 4.295L37.32 431.38zm509.154-15.601c.386-.816.772-1.63 1.135-2.42-.374.814-.757 1.628-1.132 2.42zm18.28-.645l-14.822-6.922a273.002 273.002 0 001.893-4.428l15.005 6.69-2.076 4.658zm-531.5 7.896l-1.683-3.452.063-.031 1.623 3.481zm538.118-24.063l-.064-.022 1.39-3.814-1.323 3.835zm-544.735 9.26l-1.824-4.76 15.37-5.586c.568 1.457 1.17 2.96 1.792 4.47l-15.335 5.88zm547.356-16.856l-15.364-5.6c.5-1.476 1.005-3.018 1.5-4.575l15.528 5.353-1.662 4.821zM23.299 399.5l-1.36-3.544.064-.025 1.296 3.567zm555.88-24.82l-.067-.018 1.045-3.89-.975 3.905zM18.02 384.218l-1.404-4.9 15.794-4.23c.453 1.541.921 3.09 1.394 4.61zm563.109-17.335l-15.8-4.243c.374-1.536.74-3.113 1.094-4.69l15.943 3.984-1.235 4.948zM15.458 375.27l-1.053-3.683.067-.02.989 3.7zm16.886-.425l-.28-.965-.023-.081.027.08c.096.322.189.643.282.964zm552.49-25.037l-.067-.011.706-3.988-.632 3.997zm-573.311 9.746l-.97-5.006 16.125-2.837a271.98 271.98 0 01-1.502-8.184 280.99 280.99 0 002.492 12.897zm574.572-17.68l-16.134-2.854c.236-1.566.465-3.168.678-4.766l16.258 2.583-.8 5.036zm-576.338 8.59l-.736-3.803.069-.013.67 3.816zm578.546-25.921l-.067-.005.352-4.007-.282 4.01zm-581.1 9.878l-.531-5.071 16.334-1.424a278.19 278.19 0 01-.782-8.29c.35 4.337.805 8.733 1.358 13.066L7.2 334.42zm581.664-17.89l-16.35-1.438c.097-1.544.184-3.16.26-4.806l16.45 1.16-.359 5.085zm-582.642 8.59l-.394-3.765.069-.007.328 3.77zM21.58 308.72l-16.5.281-.087-5.1 16.425.008c.04 1.61.092 3.226.157 4.81zm567.978-9.655l-.078.001.001-3.969.068 3.968zm-.137-8.033l-16.424-.01c-.038-1.569-.09-3.187-.155-4.812l16.494-.28.087 5.1zM4.922 299.738l-.066-3.867.071-.001zm567.26-24.436a277.924 277.924 0 00-1.353-13.065l16.386-1.714.531 5.072-16.343 1.421c.302 2.747.565 5.534.784 8.29zm-550.551 9.36L5.187 283.5l.359-5.089 16.349 1.438c-.098 1.56-.186 3.176-.26 4.806zm566.875-11.068l-.35-4.03.421 4.025-.069.007zm-582.659.55l.264-3.743.068.005zm563.377-22.728a273.736 273.736 0 00-2.485-12.898l16.145-3.13.97 5.007-16.127 2.836a260.378 260.378 0 011.503 8.184zm-545.46 9.272l-16.249-2.585.8-5.04 16.135 2.853a274.64 274.64 0 00-.678 4.766zm561.552-12.392l-.69-3.923.758 3.911-.066.013zm-576.356.66l.607-3.822.07.011zm19.033-11.965l-15.944-3.986 1.236-4.949 15.798 4.242c-.374 1.554-.747 3.13-1.093 4.688zm536.216-9.116c-.16-.612-.32-1.242-.494-1.87.164.597.321 1.207.497 1.868zm15.728-4.503l-1.014-3.798 1.081 3.782-.065.018zm-17.348-1.441a274.528 274.528 0 00-1.992-6.687l15.792-4.52 1.404 4.903-15.8 4.225c.201.687.403 1.387.6 2.078zM14.306 223.98l.93-3.717.068.017zm19.973-10.23l-15.525-5.353 1.661-4.823 15.362 5.6a291.15 291.15 0 00-1.498 4.574zm538.127-14.742l-1.364-3.743 1.427 3.72-.064.024zm-18.182-1.942a270.164 270.164 0 00-1.792-4.47l15.336-5.88 1.826 4.762-15.368 5.587zm-532.442 2.55l1.254-3.639.067.023zm20.799-8.461l-15.003-6.687 2.076-4.659 14.822 6.918c.76-1.73 1.547-3.47 2.337-5.173a284.768 284.768 0 00-4.227 9.6zm520.195-15.759l-1.678-3.603 1.742 3.571-.062.03zm-18.29-.345a295.684 295.684 0 00-2.174-4.295l14.782-7.199 2.234 4.585-14.832 6.909zm-513.122.92l1.561-3.502.065.03zm21.465-6.595l-14.377-7.978 2.475-4.46 14.176 8.193a281.96 281.96 0 014.11-7.236 281.758 281.758 0 00-6.38 11.481zm480.03-15.4a262.456 262.456 0 00-2.544-4.088l14.113-8.47 2.624 4.374-14.192 8.185zm18.268-1.26l-2.004-3.477 2.066 3.442-.059.035zm-508.11.46l1.81-3.263.059.033zm21.928-4.597l-13.652-9.212 2.855-4.23 13.427 9.412a281.72 281.72 0 014.725-6.852 283.29 283.29 0 00-7.358 10.881zm454.488-14.582a287.915 287.915 0 00-2.89-3.852l13.34-9.68 2.995 4.127-13.444 9.404zm18.109-2.86l-2.275-3.252 2.334 3.214-.054.04zm-481.053.54l2.157-3.197.059.04zm22.331-2.76L66.014 118.53l3.212-3.962 12.569 10.556a262.859 262.859 0 012.52-3.097 292.596 292.596 0 00-5.492 6.883zm425.511-13.657a275.274 275.274 0 00-3.212-3.584l12.455-10.815 3.345 3.85-12.588 10.55zm17.803-4.437l-2.602-3.101 2.653 3.055-.052.045zm-450.196.4l2.351-2.894.054.043zm22.41-.696L82.487 99.062l3.545-3.668 11.608 11.62.648-.676a303.05 303.05 0 00-3.939 4.188zm393.31-12.621a258.363 258.363 0 00-3.51-3.294l11.467-11.862 3.666 3.544-11.622 11.61zm17.352-5.978l-2.84-2.839 2.89 2.792-.048.049zm-393.6 1.629l-10.814-12.452 3.851-3.346 10.548 12.584a266.763 266.763 0 00-3.584 3.212zm-22.412-1.228l2.62-2.71.049.05zm382.97-8.303a278.667 278.667 0 00-6.21-4.944l10.385-12.809 3.962 3.212-10.557 12.573c.805.644 1.623 1.307 2.426 1.966zm14.334-9.427l-2.994-2.515 3.038 2.462-.042.052zm-29.327-2.031a279.769 279.769 0 00-10.88-7.36l9.214-13.648 4.23 2.854-9.412 13.428a282.375 282.375 0 016.85 4.723zm-327.1 5.56l-9.682-13.339 4.13-2.996 9.403 13.444a279.94 279.94 0 00-3.852 2.888zm-22.266-3.122l2.898-2.516.045.053zm42.007-10.648l-8.47-14.11 4.374-2.625 8.186 14.192a282.97 282.97 0 00-4.088 2.543zm316.547-5.39l-3.282-2.3 3.324 2.244-.04.057zm-29.536.42a278.406 278.406 0 00-11.327-6.294l7.98-14.38 4.46 2.475-8.195 14.178a275.54 275.54 0 017.083 4.018zm-308.821-.11l3.028-2.203.04.055zm42.689-6.911l-7.196-14.775 4.577-2.237 6.91 14.832c-1.41.7-2.854 1.431-4.295 2.174zm240.195-6.403c-2.368-1.07-4.78-2.12-7.168-3.12l6.69-15.004 4.658 2.077-6.92 14.822c.908.396 1.83.807 2.743 1.22zm34.043-.814l-3.493-2.018 3.53 1.957-.034.06zm-295.521.266l3.208-1.925.035.059zm43.123-3.17l-5.88-15.335 4.764-1.825 5.586 15.368c-1.49.585-2.996 1.187-4.47 1.793zm193.166-6.203a268.866 268.866 0 00-4.573-1.5l5.353-15.526 4.822 1.663-5.6 15.362zm36.677-2.791l-3.616-1.688 3.646 1.625-.028.062zm-207.198.821l-4.52-15.791 4.905-1.404 4.221 15.798c2.536-.744 5.1-1.45 7.618-2.107a274.017 274.017 0 00-12.224 3.508zm-43.334-.548l3.458-1.686.031.064zm190.732-4.177c-1.57-.38-3.147-.747-4.688-1.094l3.984-15.943 4.947 1.235-4.243 15.802zM238.25 27.929l-3.133-16.142 5.008-.972 2.837 16.126a266.848 266.848 0 018.185-1.503c-4.33.734-8.668 1.57-12.897 2.491zm100.508-3.216a281.21 281.21 0 00-4.766-.677l2.581-16.256 5.035.8-2.852 16.132zm59.917-1.349l-3.724-1.359 3.75 1.294-.021.063zm-136.705.482L260.254 7.46l5.073-.531 1.422 16.341c2.77-.303 5.56-.565 8.29-.783-4.369.353-8.765.808-13.07 1.358zm52.854-1.687c-1.611-.102-3.228-.19-4.806-.26l1.155-16.449 5.09.359-1.439 16.345zM195.22 23.55l3.503-1.342.025.064zm90.731-1.712l-.28-16.493 5.1-.087-.007 16.426c-1.606.04-3.223.09-4.812.154zm88.45-6.274l-3.858-1.035 3.875.968-.016.067zm-154.926.142l3.612-1.034.02.066zm130.062-5.797l-3.938-.697 3.95.627-.009.067zm-105.239.1l3.717-.721.013.068zm79.975-3.567l-3.95-.347 3.956.279-.005.068zm-54.715.049l3.76-.394.007.069zm29.244-1.3l-3.962-.002 3.961-.068.001.07z" fill="#fff"/></svg>