<svg xmlns="http://www.w3.org/2000/svg" width="60.354" height="60.186"><g data-name="noun_Death Star_1571954" transform="translate(.18 .186)" fill="none" stroke="#fffcfc" stroke-linecap="round" stroke-linejoin="round" stroke-width="2"><circle data-name="Ellipse 11" cx="29" cy="29" r="29" transform="translate(1 1)"/><path data-name="Path 34" d="M29.5 1.008h.361A.852.852 0 0130 1a.949.949 0 01.149.008h.361"/><path data-name="Path 35" d="M30.507 58.992h-.251a.568.568 0 01-.188 0h-.251c-3.127-.172-5.988-2.712-8.214-6.819"/><path data-name="Path 36" d="M12.684 43.567a29.793 29.793 0 004.374 8.2"/><path data-name="Path 37" d="M13.71 15.108A34.547 34.547 0 009.87 25.18"/><path data-name="Path 38" d="M24.437 15.226A34.547 34.547 0 0020.6 25.3"/><path data-name="Path 39" d="M21.7 6.565a34.23 34.23 0 00-3.221 8.543"/><path data-name="Path 40" d="M33.007 1.157a33.7 33.7 0 00-2.077 5.134"/><path data-name="Path 41" d="M26.541 1.2a34.583 34.583 0 00-2.085 5.212"/><path data-name="Path 42" d="M54.3 25.3a34.547 34.547 0 00-3.841-10.072"/><path data-name="Path 43" d="M47.319 43.567a30 30 0 01-4.374 8.2"/><path data-name="Path 44" d="M29.731 1.008h.125A.852.852 0 0130 1a.949.949 0 01.149.008h.118"/><path data-name="Path 45" d="M38.823 44.516a41.152 41.152 0 01-2.3 7.767"/><path data-name="Path 46" d="M29.856 1.008A.852.852 0 0130 1a.949.949 0 01.149.008h.008"/><path data-name="Path 47" d="M26.517 52.408a68.07 68.07 0 01-1.238-7.665"/><path data-name="Path 48" d="M18.248 44.108a67.538 67.538 0 01-1.231-7.618"/><path data-name="Path 49" d="M22.6 44.61c-.455-2.195-.839-4.8-1.152-7.72"/><path data-name="Path 50" d="M34.731 44.743a69.751 69.751 0 01-1.246 7.665"/><circle data-name="Ellipse 12" cx="7.838" cy="7.838" r="7.838" transform="translate(30.785 13.541)"/><circle data-name="Ellipse 13" cx="2.351" cy="2.351" r="2.351" transform="translate(36.272 19.027)"/><path data-name="Line 53" d="M38.627 19.027v-5.486"/><path data-name="Line 54" d="M45.877 18.416l-4.899 2.179"/><path data-name="Line 55" d="M36.275 20.595l-4.977-1.991"/><path data-name="Line 56" d="M37.059 23.73l-3.566 3.566"/><path data-name="Line 57" d="M43.462 27.547l-3.268-3.817"/><path data-name="Path 51" d="M58.943 29.42a103.853 103.853 0 01-28.937 3.817A103.97 103.97 0 011.052 29.42"/><path data-name="Path 52" d="M58.4 33.543A104.774 104.774 0 0130 37.195a104.894 104.894 0 01-28.407-3.652"/><path data-name="Path 53" d="M56.536 41.694a89.8 89.8 0 01-9.217 1.873q-4.08.623-8.5.948c-1.34.1-2.7.18-4.091.227q-2.328.094-4.726.094c-1.591 0-3.174-.031-4.726-.094a98.583 98.583 0 01-4.1-.227 108.53 108.53 0 01-8.5-.948 89.536 89.536 0 01-9.225-1.873"/><path data-name="Path 54" d="M50.313 50.692a97 97 0 01-7.368 1.074 103.11 103.11 0 01-6.427.517c-1 .063-2.006.1-3.033.125-1.144.039-2.312.055-3.48.055s-2.336-.016-3.488-.055a79.273 79.273 0 01-3.041-.125c-2.195-.11-4.334-.29-6.419-.517a101.363 101.363 0 01-7.368-1.074h-.007"/><path data-name="Path 55" d="M48.6 7.756q-2.747-.456-5.655-.776a103.11 103.11 0 00-6.427-.517c-1-.063-2.006-.1-3.033-.125-1.144-.039-2.312-.055-3.48-.055s-2.336.016-3.488.055a79.273 79.273 0 00-3.041.125c-2.195.11-4.334.29-6.419.517q-2.9.317-5.659.776"/><path data-name="Path 56" d="M50.54 31.426a52.486 52.486 0 00.588-6.129"/><path data-name="Path 57" d="M16.571 32.485a52.912 52.912 0 01-.658-7.187"/><path data-name="Path 58" d="M26.067 33.1a50.62 50.62 0 01-.768-7.8"/><path data-name="Line 58" d="M58.613 25.297H45.414"/><path data-name="Line 59" d="M31.839 25.297H1.381"/><path data-name="Line 60" d="M54.891 15.108H43.322"/><path data-name="Line 61" d="M33.932 15.108H5.112"/></g></svg>