<svg xmlns="http://www.w3.org/2000/svg" width="611" height="576.566"><g data-name="Group 36"><g data-name="Ellipse 4" transform="translate(102 84.82)" fill="none" stroke="#fff" opacity=".507"><circle cx="203.5" cy="203.5" r="203.5" stroke="none"/><circle cx="203.5" cy="203.5" r="203"/></g><g data-name="Group 27"><g data-name="Subtraction 3" fill="#fff"><path d="M296.002 574.01c-18.421-.482-36.788-2.732-54.636-6.695a284.387 284.387 0 01-53.147-17.449 286.07 286.07 0 01-47.983-27.008 287.948 287.948 0 01-39.857-33.573l10.796-9.722a273.376 273.376 0 0037.677 31.878 271.51 271.51 0 0045.33 25.674 269.953 269.953 0 0050.226 16.673 272.542 272.542 0 0051.594 6.535v13.688zm15.177 0v-13.64a272.626 272.626 0 0051.79-6.248 269.957 269.957 0 0050.453-16.447 271.538 271.538 0 0045.566-25.515 273.386 273.386 0 0037.914-31.789l9.9 8.914a288.024 288.024 0 01-39.858 33.573 285.919 285.919 0 01-47.981 27.008 284.408 284.408 0 01-53.15 17.45 287.176 287.176 0 01-54.634 6.693zm272.158-344.657v-.004l.107-.128 3.42-1.904 1.393 1.17-4.92.866zm-.633-2.932h-14.228a269.77 269.77 0 00-21.267-58.574 272.052 272.052 0 00-33.173-51.02l10.703-9.637a286.359 286.359 0 0135.855 55.864 284.16 284.16 0 0122.11 63.367zm-542.303 0H24.475a284.191 284.191 0 0122.111-63.367 286.311 286.311 0 0135.855-55.864l11.68 10.517a271.952 271.952 0 00-32.711 50.658A269.757 269.757 0 0040.4 226.42zm85.502-141.6l-11.747-10.578A287.56 287.56 0 01152.035 45.9a285.603 285.603 0 0144.97-22.911 284.484 284.484 0 0149.126-14.756 287.692 287.692 0 0149.871-5.678v15.383c-31.845.971-62.878 7.42-92.273 19.177a271.138 271.138 0 00-42.049 21.243 273.003 273.003 0 00-35.777 26.463zm356.208-.751a273.096 273.096 0 00-35.996-26.377A271.138 271.138 0 00403.849 36.6c-29.547-11.641-60.713-17.932-92.67-18.709V2.555a287.634 287.634 0 0149.871 5.678 284.461 284.461 0 0149.124 14.756 285.445 285.445 0 0144.971 22.91 287.645 287.645 0 0137.88 28.344L482.11 84.07z"/><path d="M293.502 571.433v-8.696a274.918 274.918 0 01-49.645-6.51 272.46 272.46 0 01-50.691-16.828 274.018 274.018 0 01-45.749-25.911 275.893 275.893 0 01-36.337-30.475l-7.072 6.368a285.454 285.454 0 0037.659 31.426 283.556 283.556 0 0047.562 26.773 281.873 281.873 0 0052.68 17.295 284.671 284.671 0 0051.593 6.558m20.177-.002a284.568 284.568 0 0051.593-6.556 281.903 281.903 0 0052.68-17.295 283.415 283.415 0 0047.562-26.773 285.56 285.56 0 0037.658-31.426l-6.182-5.566a275.921 275.921 0 01-36.576 30.399 274.045 274.045 0 01-45.987 25.75 272.46 272.46 0 01-50.92 16.6 275.006 275.006 0 01-49.828 6.235v8.632m265.895-347.51a281.684 281.684 0 00-21.226-59.77 283.847 283.847 0 00-33.89-53.342l-6.98 6.283a274.503 274.503 0 0131.967 49.636 272.307 272.307 0 0121.001 57.193h9.128m-541.143 0a272.278 272.278 0 0120.74-56.67 274.395 274.395 0 0131.515-49.273l-7.963-7.17a283.764 283.764 0 00-33.89 53.343 281.722 281.722 0 00-21.229 59.77h10.827m87.503-142.437a275.524 275.524 0 0134.43-25.251 273.636 273.636 0 0142.436-21.44c28.924-11.568 59.412-18.043 90.702-19.27V5.133a285.037 285.037 0 00-46.871 5.55 281.982 281.982 0 00-48.693 14.625 283.1 283.1 0 00-44.576 22.71 285.055 285.055 0 00-35.443 26.25l8.015 7.216m356.139-.744l7.188-6.472a285.137 285.137 0 00-35.444-26.25 282.933 282.933 0 00-44.576-22.71 281.96 281.96 0 00-48.69-14.625 284.982 284.982 0 00-46.872-5.55v10.329c31.398 1.038 62.017 7.36 91.086 18.812a273.638 273.638 0 0142.657 21.288 275.6 275.6 0 0134.65 25.178m-183.57 495.826h-.001c-19.44-.338-38.845-2.63-57.676-6.81-18.363-4.077-36.401-9.999-53.616-17.603a288.574 288.574 0 01-48.403-27.245 290.446 290.446 0 01-42.038-35.735l14.518-13.074a270.843 270.843 0 0039.002 33.295A269.003 269.003 0 00195.2 534.83a267.458 267.458 0 0049.758 16.519c17.477 3.947 35.492 6.147 53.544 6.538V576.566zm10.177-.002h-.002l.002-.002V557.92c18.113-.28 36.197-2.378 53.753-6.238a267.452 267.452 0 0049.985-16.295 269.039 269.039 0 0045.146-25.28 270.858 270.858 0 0039.236-33.192l13.614 12.259a290.505 290.505 0 01-42.039 35.735 288.423 288.423 0 01-48.401 27.245 286.91 286.91 0 01-53.617 17.603c-18.836 4.182-38.24 6.472-57.677 6.808zM585.8 228.923l-.003-.002h-.001v-.002.002H566.49a267.24 267.24 0 00-21.517-59.955 269.567 269.567 0 00-34.395-52.39l14.425-12.988a288.897 288.897 0 0137.837 58.37 286.607 286.607 0 0122.957 66.963v.002zm-543.414-.001v-.001H21.38a286.647 286.647 0 0122.96-66.964 288.85 288.85 0 0137.837-58.369L97.57 117.45a269.46 269.46 0 00-33.923 52.03 267.221 267.221 0 00-21.262 59.442zm83.5-140.753v-.001l-15.473-13.931a290.05 290.05 0 0140.295-30.456 288.113 288.113 0 0145.365-23.112c16-6.432 32.674-11.44 49.56-14.885A290.29 290.29 0 01298.501 0v20.373c-32.4.703-63.974 7.116-93.845 19.063a268.62 268.62 0 00-41.66 21.047 270.466 270.466 0 00-37.11 27.685h-.001zm356.25-.758h-.001a270.555 270.555 0 00-37.326-27.587 268.623 268.623 0 00-41.875-20.898c-30.026-11.83-61.737-18.082-94.254-18.584V0a290.234 290.234 0 0152.871 5.784 286.973 286.973 0 0149.557 14.885 287.944 287.944 0 0145.366 23.112 290.135 290.135 0 0140.295 30.456L482.136 87.41v.001z"/></g><g data-name="Ellipse 5" transform="translate(24 8.82)" fill="none" stroke="#fff" opacity=".507"><ellipse cx="279.5" cy="280" rx="279.5" ry="280" stroke="none"/><ellipse cx="279.5" cy="280" rx="279" ry="279.5"/></g><g data-name="Group 23" transform="translate(0 123.524)" fill="#fff"><ellipse data-name="Ellipse 16" cx="8" cy="8.5" rx="8" ry="8.5" transform="translate(33 .296)"/><ellipse data-name="Ellipse 17" cx="8" cy="8.5" rx="8" ry="8.5" transform="translate(0 73.296)"/><ellipse data-name="Ellipse 18" cx="6" cy="5" rx="6" ry="5" transform="translate(21 29.296)"/><circle data-name="Ellipse 19" cx="5" cy="5" r="5" transform="translate(11 51.296)"/></g><g data-name="Group 24" transform="translate(562.002 123.524)" fill="#fff"><ellipse data-name="Ellipse 16" cx="8" cy="8.5" rx="8" ry="8.5" transform="translate(-.002 .296)"/><circle data-name="Ellipse 17" cx="8.5" cy="8.5" r="8.5" transform="translate(31.998 73.296)"/><circle data-name="Ellipse 18" cx="5" cy="5" r="5" transform="translate(15.998 29.296)"/><ellipse data-name="Ellipse 19" cx="5.5" cy="5" rx="5.5" ry="5" transform="translate(25.998 51.296)"/></g><g data-name="Group 25" transform="rotate(9 -2275.867 3597.805)" fill="#fff"><circle data-name="Ellipse 16" cx="8.48" cy="8.48" r="8.48" transform="translate(0 72.93)"/><circle data-name="Ellipse 17" cx="8.48" cy="8.48" r="8.48" transform="translate(32.225)"/><circle data-name="Ellipse 18" cx="5.088" cy="5.088" transform="translate(16.96 50.881)" r="5.088"/><circle data-name="Ellipse 19" cx="5.088" cy="5.088" transform="translate(27.137 28.833)" r="5.088"/></g><g data-name="Group 26" transform="rotate(171 21.43 247.752)" fill="#fff"><circle data-name="Ellipse 16" cx="8.48" cy="8.48" r="8.48"/><circle data-name="Ellipse 17" cx="8.48" cy="8.48" transform="translate(32.225 72.93)" r="8.48"/><circle data-name="Ellipse 18" cx="5.088" cy="5.088" transform="translate(16.96 28.833)" r="5.088"/><circle data-name="Ellipse 19" cx="5.088" cy="5.088" transform="translate(27.137 50.881)" r="5.088"/></g></g></g></svg>