<svg xmlns="http://www.w3.org/2000/svg" width="299.903" height="199.12"><path data-name="Path 32" d="M188.457 156.332v4.975h7.96c6.667 0 8.259-.3 9.951-1.99 2.289-2.289 2.388-3.284 1-6.07-.901-1.69-2.194-1.89-9.956-1.89h-8.955zm16.418-.5c0 1.791-.8 1.99-7.164 2.289-7.264.3-7.264.3-7.264-2.289s0-2.587 7.264-2.289c6.368.302 7.164.501 7.164 2.292z" fill="#fff"/><path data-name="Path 28" d="M.893 136.133c.3 1.493 4.776 16.219 9.851 32.638l9.249 29.851h22.589l3.184-9.951c1.791-5.871 3.383-9.353 3.781-8.458.3.8 1.891 5.274 3.383 9.951l2.886 8.458 10.846.3 10.846.2 8.856-31.046c4.876-17.115 9.055-31.941 9.353-32.936.4-1.592-.5-1.692-11.841-1.493l-12.239.3-2.09 6.667a60.242 60.242 0 01-2.587 7.264c-.3.3-1.592-2.886-2.886-6.965l-2.387-7.466H36.612l-2.488 7.662-2.488 7.761-2.587-7.463-2.487-7.46-13.135-.3-13.234-.3zm27.559 10.448l3.383 10.15 2.786-8.856c1.493-4.975 2.886-9.552 3.085-10.249.4-.9 3.184-1.194 11.642-1l11.145.3 3.184 9.951c1.791 5.473 3.383 9.254 3.682 8.458s1.791-5.373 3.284-10.249l2.587-8.657h19.6l-1.99 6.667c-1 3.781-4.876 17.413-8.557 30.449l-6.665 23.684-8.856-.3-8.955-.3-2.786-8.458c-1.592-4.677-3.582-10.448-4.577-12.936l-1.592-4.478-4.18 12.94-4.079 12.935H21.885l-9.254-29.851c-5.075-16.418-9.254-29.951-9.254-30.15 0-.1 4.876-.2 10.846-.2h10.846z" fill="#fff"/><path data-name="Path 29" d="M103.48 141.606c-6.567 21.593-16.518 55.823-16.518 56.619 0 .5 5.373.9 12.04.9h11.941l2.089-4.978 2.09-5.075 9.553.3 9.453.3 1.492 4.675 1.493 4.776h12.339c9.453 0 12.239-.3 11.941-1.294-.3-.6-4.876-15.423-10.249-32.837l-9.753-31.545h-35.424zm45.076 23.185c4.776 15.324 9.055 28.856 9.453 30.051.7 2.289.7 2.289-9.254 2.289h-9.851l-1.692-4.975-1.692-4.975h-22.488l-1.791 4.975-1.791 4.975h-9.851c-9.751 0-9.851 0-9.353-2.189.4-1.294 4.279-14.926 8.856-30.449l8.259-28.06 16.219.2 16.319.3z" fill="#fff"/><path data-name="Path 30" d="M120.992 160.91c-1.791 5.572-3.184 10.35-3.184 10.75 0 .3 2.886.6 6.468.6s6.468-.1 6.468-.3c0-.1-1.493-4.876-3.383-10.647l-3.284-10.453zm3.582 9.154c-1.692.2-3.184.1-3.483-.2-.3-.2.3-2.886 1.294-5.771l1.791-5.274 1.692 5.473 1.692 5.473z" fill="#fff"/><path data-name="Path 23" d="M51.245 2.388c-5.771 2.687-8.756 5.672-10.946 10.747-3.184 7.761-.6 17.513 6.368 24.08C48.36 38.907 49.753 40.5 49.753 41c0 .4-11.145.8-24.876.8H0v23.981l33.135-.3c31.842-.3 33.235-.4 37.115-2.488 12.836-6.866 14.627-19.8 4.776-33.135-2.388-3.284-4.776-5.97-5.373-5.97a1.07 1.07 0 01-1-1c0-.6 5.174-1 13.433-1h13.433V65.67h22.886l.2-21.692.3-21.593 13.234-.3 13.135-.3V0H56.22zm92.042 8.557V19.9h-26.866v42.787H97.515V19.9H81.2c-9.055 0-16.617.4-17.015.9-.3.5 1.692 3.085 4.478 5.672 12.936 12.239 13.433 27.662 1 33.832-5.274 2.687-3.98 2.587-39.5 2.488l-28.16-.1v-18.91h25.361c28.956 0 28.359.2 21.294-7.761a41.133 41.133 0 01-6.07-9.055c-4.378-9.652 1.592-20.6 12.936-23.981 1.493-.5 21.792-.9 45.275-.9l42.489-.1z" fill="#fff"/><path data-name="Path 24" d="M153.735 1.194c-1.592 4.677-18.408 62.39-18.408 63.285s3.085 1.194 12.04 1l12.14-.3 1.99-5.274 1.99-5.274 9.453.3 9.453.3 1.692 4.975 1.692 4.975 12.637.3c11.841.2 12.538.1 11.742-1.493-.5-1-3.284-9.453-6.07-18.707-2.886-9.354-7.264-23.284-9.652-31.145L189.955 0h-17.911c-13.433 0-18.01.3-18.309 1.194zm43.285 29.155c4.776 15.324 8.955 28.857 9.353 30.051.7 2.289.7 2.289-9.055 2.289h-9.851l-1.791-4.975-1.791-4.975h-22.289l-1.791 4.975-1.791 4.975h-9.851c-5.373 0-9.851-.3-9.851-.6 0-.6 16.518-56.419 17.413-58.907.3-1 4.179-1.194 16.518-1l16.12.3z" fill="#fff"/><path data-name="Path 25" d="M169.358 26.966c-1.691 5.672-3.184 10.747-3.184 11.145s2.886.7 6.468.7c4.577 0 6.468-.4 6.368-1.294 0-.6-1.493-5.672-3.184-11.145l-3.184-9.851zm6.169 6.567c.7 2.09.4 2.289-2.786 2.289-1.99 0-3.582-.1-3.582-.3s.8-2.587 1.692-5.274l1.692-4.876 1.194 2.985c.596 1.694 1.492 3.982 1.791 5.176z" fill="#fff"/><path data-name="Path 26" d="M211.946 32.837v32.837h26.866V49.852l4.478 4.776a46.7 46.7 0 009.656 7.662l5.274 2.886 20.7.3 20.6.4v-24.08h-13.343c-13.035 0-19.5-.6-19.5-1.891a13.15 13.15 0 013.184-2.587c5.274-3.383 7.164-6.766 7.562-13.831.7-10.548-3.184-17.911-11.244-21.593C262.694.3 259.31 0 237.121 0h-25.175zM265.48 4.578c6.368 3.184 9.155 7.463 9.851 15.125.6 7.363-2.388 13.732-7.861 16.617-4.378 2.289-4.478 2.786-1.791 5.473 1.791 1.791 3.284 1.99 16.916 1.99h14.926v18.906h-19.106c-17.115 0-19.5-.2-23.185-1.99-3.98-1.891-14.03-11.642-17.612-16.916-1.592-2.388-1.692-2.09-1.692 8.159l-.1 10.747h-21.89v-60.7h23.185c22.886.001 23.284.001 28.359 2.588z" fill="#fff"/><path data-name="Path 27" d="M235.827 21.891v4.975h8.756c9.552 0 11.145-.7 11.145-5.174-.001-3.776-2.388-4.776-11.841-4.776h-8.06zm17.314-.7c1.592 2.587-.7 3.682-8.06 3.682h-6.269v-6.07l6.567.3c5.075.201 6.966.699 7.762 2.092z" fill="#fff"/><path data-name="Path 31" d="M163.581 166.383v32.737h26.866v-15.025l4.975 5.075a40.24 40.24 0 0010.15 7.463c5.174 2.488 5.572 2.488 33.633 2.488 25.473 0 28.757-.2 32.339-1.891a18.616 18.616 0 009.95-10.249c3.284-8.06 1.095-16.219-7.164-26.269l-3.483-4.378h29.055v-23.086l-20.6.4c-20.4.3-20.8.3-26.468 3.085-7.463 3.682-11.145 9.552-11.145 17.612 0 6.368 1.99 10.747 7.264 16.518l3.781 4.08-13.732.6c-13.035.6-19.7.2-19.7-1.194 0-.4 1.393-1.493 2.985-2.388 6.269-3.682 9.155-15.523 6.07-24.777-1.393-4.378-7.463-10.15-12.14-11.543-1.891-.6-14.428-1.294-27.961-1.592l-24.675-.501zm55.623-26.667c10.349 6.866 10.946 23.782 1.095 30.349-1.891 1.294-3.483 3.085-3.483 3.98 0 3.284 4.378 4.179 21.692 4.179 19.7 0 20.3-.4 13.334-7.861-9.453-10.15-10.747-18.906-3.98-27.065 5.174-6.07 8.458-6.866 30.449-6.866h19.6v16.916h-14.924c-17.911 0-18.408.4-11.443 8.159 5.373 5.97 9.453 13.732 9.453 18.11 0 4.776-3.781 11.443-8.259 14.329l-3.98 2.687-28.259.3c-26.17.3-28.458.2-32.538-1.692-5.373-2.388-12.438-8.657-16.518-14.826l-2.985-4.478v21.193h-22.887v-60.8l24.677.3 24.777.3z" fill="#fff"/></svg>